<svg width="1836" height="377" viewBox="0 0 1836 377" fill="none" xmlns="http://www.w3.org/2000/svg">
<path d="M1835 257.053V212.559V86L1699.48 192.149H1380.06L1347.47 217.678L1315.45 192.592L1156.5 196.251L1083.5 240.925H1016.28L959.231 196.251H642.602H416.746L353.898 245.47H0V312.096H281.916V323.679H635.793L698.663 372.898H924.497H1241.15L1298.19 328.224L1359.89 376.557H1597.37L1629.38 351.472L1661.98 377H1835V257.053Z" fill="#090A1E"/>
<path d="M140 211.25V273.25H146.5V211.25H140Z" fill="#D9D9D9"/>
<path d="M140 211.25V273.25H146.5V211.25H140Z" fill="#090A1E"/>
<path d="M140 211.25V273.25H146.5V211.25H140Z" stroke="#090A1E"/>
<path d="M223 165H123V211H223V165Z" fill="#D9D9D9"/>
<path d="M223 165H123V211H223V165Z" fill="#090A1E"/>
<path d="M223 165H123V211H223V165Z" stroke="#090A1E"/>
<path d="M199.5 211.25V273.25H206V211.25H199.5Z" fill="#D9D9D9"/>
<path d="M199.5 211.25V273.25H206V211.25H199.5Z" fill="#090A1E"/>
<path d="M199.5 211.25V273.25H206V211.25H199.5Z" stroke="#090A1E"/>
<path d="M431 143V205H437.5V143H431Z" fill="#D9D9D9"/>
<path d="M431 143V205H437.5V143H431Z" fill="#090A1E"/>
<path d="M431 143V205H437.5V143H431Z" stroke="#090A1E"/>
<path d="M461.5 143V205H468V143H461.5Z" fill="#D9D9D9"/>
<path d="M461.5 143V205H468V143H461.5Z" fill="#090A1E"/>
<path d="M461.5 143V205H468V143H461.5Z" stroke="#090A1E"/>
<path d="M492 143V205H498.5V143H492Z" fill="#D9D9D9"/>
<path d="M492 143V205H498.5V143H492Z" fill="#090A1E"/>
<path d="M492 143V205H498.5V143H492Z" stroke="#090A1E"/>
<path d="M523 143V205H529.5V143H523Z" fill="#D9D9D9"/>
<path d="M523 143V205H529.5V143H523Z" fill="#090A1E"/>
<path d="M523 143V205H529.5V143H523Z" stroke="#090A1E"/>
<path d="M553.5 143V205H560V143H553.5Z" fill="#D9D9D9"/>
<path d="M553.5 143V205H560V143H553.5Z" fill="#090A1E"/>
<path d="M553.5 143V205H560V143H553.5Z" stroke="#090A1E"/>
<path d="M584 143V205H590.5V143H584Z" fill="#D9D9D9"/>
<path d="M584 143V205H590.5V143H584Z" fill="#090A1E"/>
<path d="M584 143V205H590.5V143H584Z" stroke="#090A1E"/>
<path d="M615 143V205H621.5V143H615Z" fill="#D9D9D9"/>
<path d="M615 143V205H621.5V143H615Z" fill="#090A1E"/>
<path d="M615 143V205H621.5V143H615Z" stroke="#090A1E"/>
<path d="M645.5 143V205H652V143H645.5Z" fill="#D9D9D9"/>
<path d="M645.5 143V205H652V143H645.5Z" fill="#090A1E"/>
<path d="M645.5 143V205H652V143H645.5Z" stroke="#090A1E"/>
<path d="M676 143V205H682.5V143H676Z" fill="#D9D9D9"/>
<path d="M676 143V205H682.5V143H676Z" fill="#090A1E"/>
<path d="M676 143V205H682.5V143H676Z" stroke="#090A1E"/>
<path d="M707 143V205H713.5V143H707Z" fill="#D9D9D9"/>
<path d="M707 143V205H713.5V143H707Z" fill="#090A1E"/>
<path d="M707 143V205H713.5V143H707Z" stroke="#090A1E"/>
<path d="M737.5 143V205H744V143H737.5Z" fill="#D9D9D9"/>
<path d="M737.5 143V205H744V143H737.5Z" fill="#090A1E"/>
<path d="M737.5 143V205H744V143H737.5Z" stroke="#090A1E"/>
<path d="M768 143V205H774.5V143H768Z" fill="#D9D9D9"/>
<path d="M768 143V205H774.5V143H768Z" fill="#090A1E"/>
<path d="M768 143V205H774.5V143H768Z" stroke="#090A1E"/>
<path d="M785 134H421V143H785V134Z" fill="#D9D9D9"/>
<path d="M785 134H421V143H785V134Z" fill="#090A1E"/>
<path d="M785 134H421V143H785V134Z" stroke="#090A1E"/>
<path d="M901 171V251H908V171H901Z" fill="#D9D9D9"/>
<path d="M901 171V251H908V171H901Z" fill="#090A1E"/>
<path d="M901 171V251H908V171H901Z" stroke="#090A1E"/>
<path d="M932 171V251H938V171H932Z" fill="#D9D9D9"/>
<path d="M932 171V251H938V171H932Z" fill="#090A1E"/>
<path d="M932 171V251H938V171H932Z" stroke="#090A1E"/>
<path d="M962 171V251H969V171H962Z" fill="#D9D9D9"/>
<path d="M962 171V251H969V171H962Z" fill="#090A1E"/>
<path d="M962 171V251H969V171H962Z" stroke="#090A1E"/>
<path d="M993 171V251H1000V171H993Z" fill="#D9D9D9"/>
<path d="M993 171V251H1000V171H993Z" fill="#090A1E"/>
<path d="M993 171V251H1000V171H993Z" stroke="#090A1E"/>
<path d="M1024 171V251H1030V171H1024Z" fill="#D9D9D9"/>
<path d="M1024 171V251H1030V171H1024Z" fill="#090A1E"/>
<path d="M1024 171V251H1030V171H1024Z" stroke="#090A1E"/>
<path d="M1054 171V251H1061V171H1054Z" fill="#D9D9D9"/>
<path d="M1054 171V251H1061V171H1054Z" fill="#090A1E"/>
<path d="M1054 171V251H1061V171H1054Z" stroke="#090A1E"/>
<path d="M1085 171V251H1092V171H1085Z" fill="#D9D9D9"/>
<path d="M1085 171V251H1092V171H1085Z" fill="#090A1E"/>
<path d="M1085 171V251H1092V171H1085Z" stroke="#090A1E"/>
<path d="M1116 171V251H1122V171H1116Z" fill="#D9D9D9"/>
<path d="M1116 171V251H1122V171H1116Z" fill="#090A1E"/>
<path d="M1116 171V251H1122V171H1116Z" stroke="#090A1E"/>
<path d="M1146 171V251H1153V171H1146Z" fill="#D9D9D9"/>
<path d="M1146 171V251H1153V171H1146Z" fill="#090A1E"/>
<path d="M1146 171V251H1153V171H1146Z" stroke="#090A1E"/>
<path d="M1177 171V251H1184V171H1177Z" fill="#D9D9D9"/>
<path d="M1177 171V251H1184V171H1177Z" fill="#090A1E"/>
<path d="M1177 171V251H1184V171H1177Z" stroke="#090A1E"/>
<path d="M1208 171V251H1214V171H1208Z" fill="#D9D9D9"/>
<path d="M1208 171V251H1214V171H1208Z" fill="#090A1E"/>
<path d="M1208 171V251H1214V171H1208Z" stroke="#090A1E"/>
<path d="M1238 171V251H1245V171H1238Z" fill="#D9D9D9"/>
<path d="M1238 171V251H1245V171H1238Z" fill="#090A1E"/>
<path d="M1238 171V251H1245V171H1238Z" stroke="#090A1E"/>
<path d="M1717 96V187H1724V96H1717Z" fill="#D9D9D9"/>
<path d="M1717 96V187H1724V96H1717Z" fill="#090A1E"/>
<path d="M1717 96V187H1724V96H1717Z" stroke="#090A1E"/>
<path d="M1748 69V159H1755V69H1748Z" fill="#D9D9D9"/>
<path d="M1748 69V159H1755V69H1748Z" fill="#090A1E"/>
<path d="M1748 69V159H1755V69H1748Z" stroke="#090A1E"/>
<path d="M1779 47V159H1785V47H1779Z" fill="#D9D9D9"/>
<path d="M1779 47V159H1785V47H1779Z" fill="#090A1E"/>
<path d="M1779 47V159H1785V47H1779Z" stroke="#090A1E"/>
<path d="M1809 21V159H1816V21H1809Z" fill="#D9D9D9"/>
<path d="M1809 21V159H1816V21H1809Z" fill="#090A1E"/>
<path d="M1809 21V159H1816V21H1809Z" stroke="#090A1E"/>
<path d="M1255 159H891V171H1255V159Z" fill="#D9D9D9"/>
<path d="M1255 159H891V171H1255V159Z" fill="#090A1E"/>
<path d="M1255 159H891V171H1255V159Z" stroke="#090A1E"/>
<path d="M1686 181H1645V193H1686V181Z" fill="#D9D9D9"/>
<path d="M1686 181H1645V193H1686V181Z" fill="#090A1E"/>
<path d="M1686 181H1645V193H1686V181Z" stroke="#090A1E"/>
<path d="M1630 181H1589V193H1630V181Z" fill="#D9D9D9"/>
<path d="M1630 181H1589V193H1630V181Z" fill="#090A1E"/>
<path d="M1630 181H1589V193H1630V181Z" stroke="#090A1E"/>
<path d="M1574 181H1533V193H1574V181Z" fill="#D9D9D9"/>
<path d="M1574 181H1533V193H1574V181Z" fill="#090A1E"/>
<path d="M1574 181H1533V193H1574V181Z" stroke="#090A1E"/>
<path d="M1518 181H1477V193H1518V181Z" fill="#D9D9D9"/>
<path d="M1518 181H1477V193H1518V181Z" fill="#090A1E"/>
<path d="M1518 181H1477V193H1518V181Z" stroke="#090A1E"/>
<path d="M1685.64 112.151L1827.85 1.00006L1835.24 10.4546L1693.03 121.606L1685.64 112.151Z" fill="#D9D9D9"/>
<path d="M1685.64 112.151L1827.85 1.00006L1835.24 10.4546L1693.03 121.606L1685.64 112.151Z" fill="#090A1E"/>
<path d="M1685.64 112.151L1827.85 1.00006L1835.24 10.4546L1693.03 121.606L1685.64 112.151Z" stroke="#090A1E"/>
<rect y="273" width="1809" height="100" fill="#090A1E"/>
</svg>
