<svg width="562" height="153" viewBox="0 0 562 153" fill="none" xmlns="http://www.w3.org/2000/svg">
<path d="M118.016 90.048V90.688H128V91.968H127.488V93.888H100.992V94.528H105.6V96.448H119.68V97.728H112.384V100.288H112V100.928H103.552V102.848H116.096V103.488H116.608V105.408H117.888V107.968H93.1839V109.888H119.296V111.168H110.592V113.088H109.44V114.368H112.384V115.648H110.464V116.928H114.944L114.56 118.208H120.576C120.405 118.464 120.192 118.72 119.936 118.976C119.765 119.147 119.552 119.317 119.296 119.488H122.24C121.813 119.829 121.216 120 120.448 120H95.3599C94.5919 120 93.9946 119.829 93.5679 119.488H90.6239C90.0266 119.232 89.5999 118.805 89.3439 118.208H83.3279L82.9439 116.928H78.4639V115.648H80.3839V114.368H77.4399V113.088H78.5919V111.168H87.2959V109.888H64.1279V111.168H53.5039V113.088H60.7999V114.368H59.0079V115.648H65.6639V116.928H58.4959L58.1119 118.208H60.9279C60.5866 118.805 60.2026 119.232 59.7759 119.488H56.7039C56.2772 119.829 55.6799 120 54.9119 120H29.8239C28.9706 120 28.3306 119.829 27.9039 119.488H30.9759C30.5492 119.232 30.1652 118.805 29.8239 118.208H26.8799C26.6239 117.781 26.4959 117.355 26.4959 116.928H33.6639V115.648H27.0079V114.368H28.7999V113.088H21.5039V111.168H32.1279V109.888H38.2719V107.968H18.5599V105.408H25.8559V103.488H30.9759V102.848H27.3919V100.928H21.3759V100.288H22.6559V97.728H26.7519V96.448H28.6719V94.528H19.4559V93.888H43.1359V91.968H14.2079V90.688H41.4719V90.048H28.1599V88.128H35.8399V87.488H37.3759V86.848H36.7359V84.288H24.0639V82.368H28.2879V81.728H27.1359V79.808H27.6479V79.168H27.7759V77.888H27.9039V77.248H26.2399V76.608H21.2479V74.688H22.9119V72.768H20.3519V70.848H26.7519V68.288H25.3439V67.008H15.9999V66.368H30.9759V65.088H34.5599V64.448H-9.15527e-05V63.808H20.3519V63.168H27.6479V61.248H14.5919V58.688H11.0079V56.768H26.3679V54.208H27.6479V52.288H35.8399V51.648H28.7999V49.088H34.5599V47.808H27.6479V47.168H25.2159V45.888H21.5039V44.608H17.0239V42.048H25.0879V40.128H29.9519V38.208H27.6479V36.928H24.4479V36.288H26.2399V35.008H25.8559V33.856C25.8559 33.2587 25.9839 32.7893 26.2399 32.448H34.4319C34.5172 32.192 34.6452 31.9787 34.8159 31.808C34.9866 31.552 35.1572 31.3387 35.3279 31.168H55.0399C55.5519 30.656 56.2772 30.4 57.2159 30.4H106.368C107.221 30.4 107.947 30.656 108.544 31.168H128.256C128.427 31.3387 128.597 31.552 128.768 31.808C129.024 31.9787 129.195 32.192 129.28 32.448H112.768C112.939 32.96 113.024 33.4293 113.024 33.856V35.008H113.664V36.288H115.456V36.928H112V38.208H110.464V40.128H115.456V42.048H103.424V44.608H117.248V45.888H107.264V47.168H111.36V47.808H109.312V49.088H118.912V51.648H104.832V52.288H115.712V54.208H113.792V56.768H103.552V58.688H99.3279V61.248H112.384V63.168H105.088V63.808H84.7359V64.448H119.296V65.088H115.712V66.368H100.736V67.008H110.08V68.288H111.488V70.848H105.088V72.768H107.648V74.688H105.984V76.608H110.976V77.248H112.64V77.888H112.512V79.168H112.384V79.808H111.872V81.728H113.024V82.368H108.8V84.288H121.472V86.848H122.112V87.488H120.576V88.128H112.896V90.048H118.016ZM43.0079 56.768V58.688H46.5919V60.736H67.3279V58.688H71.5519V56.768H81.7919V54.208H83.7119V52.288H72.8319V51.648H86.9119V49.088H77.3119V47.808H79.3599V47.168H75.2639V45.888H85.2479V44.608H71.4239V42.048H83.4559V40.128H78.4639V38.208H79.9999V36.928H83.4559V36.288H81.6639V35.008H81.0239V33.856C81.0239 33.4293 81.1092 32.96 81.2799 32.448H97.7919C97.9626 32.192 98.1332 31.9787 98.3039 31.808C98.4746 31.552 98.6452 31.3387 98.8159 31.168H64.7679C65.1946 31.5093 65.5359 31.936 65.7919 32.448H57.5999C57.7706 32.704 57.8559 33.1733 57.8559 33.856V35.008H58.2399V36.288H56.4479V36.928H59.6479V38.208H61.9519V40.128H57.0879V42.048H49.0239V44.608H53.5039V45.888H57.2159V47.168H59.6479V47.808H66.5599V49.088H60.7999V51.648H67.8399V52.288H59.6479V54.208H58.3679V56.768H43.0079ZM95.9999 91.968V90.688H86.0159V90.048H80.8959V88.896H60.1599V90.048H73.4719V90.688H46.2079V91.968H75.1359V93.888H95.4879V91.968H95.9999ZM87.6799 96.448H73.5999V94.528H68.9919V93.888H51.4559V94.528H60.6719V96.448H58.7519V97.728H54.6559V100.288H53.3759V100.928H59.3919V102.848H62.9759V103.488H57.8559V105.408H50.5599V107.968H85.8879V105.408H84.6079V103.488H84.0959V102.848H71.5519V100.928H79.9999V100.288H80.3839V97.728H87.6799V96.448ZM124.603 42.688V40.128H124.475V38.208H125.627V37.568H126.395V35.008H125.755V33.088H125.883V30.528H126.395V28.608H126.139V27.456C126.139 26.7733 126.224 26.304 126.395 26.048H127.675L128.059 25.408H127.035C127.718 24.4693 128.656 24 129.851 24H151.483C152.678 24 153.616 24.4693 154.299 25.408H155.323L155.707 26.048H154.299C154.555 26.3893 154.683 26.8587 154.683 27.456V28.608H154.939V30.528H154.427V33.088H154.299V35.008H154.939V37.568H154.171V38.208H153.019V40.128H153.147V42.688H154.043V42.944C154.043 43.712 153.744 44.48 153.147 45.248H151.611C151.014 46.016 150.16 46.4 149.051 46.4H127.419C126.31 46.4 125.414 46.016 124.731 45.248H126.267C125.755 44.5653 125.499 43.7973 125.499 42.944V42.688H124.603ZM150.971 69.568H163.003V72.128H158.651V73.408H153.787V75.968H157.499V76.608H155.067V77.888H155.451V79.168H156.091V81.088H149.691V83.008H153.915V84.928H153.147V86.208H155.323V88.128H155.835V90.048H155.067V91.968H155.707V93.248H155.067V95.808H154.811V97.728H154.299V99.648H154.811V100.928H155.067V103.488H154.555V104.768H155.195V106.048H155.067V107.968H155.579V109.888H155.963V110.528H155.067V113.088H153.275V115.648H154.555V116.544C154.555 116.971 154.512 117.312 154.427 117.568H153.531C153.275 118.421 152.806 119.061 152.123 119.488H154.683C154.256 119.829 153.616 120 152.763 120H129.851C129.083 120 128.486 119.829 128.059 119.488H125.499C124.731 119.061 124.219 118.421 123.963 117.568H124.859C124.774 117.312 124.731 116.971 124.731 116.544V115.648H123.451V113.088H125.243V110.528H126.139V109.888H125.755V107.968H125.243V106.048H125.371V104.768H124.731V103.488H125.243V100.928H124.987V99.648H124.475V97.728H124.987V95.808H125.243V93.248H125.883V91.968H125.243V90.048H126.011V88.128H125.499V86.208H123.323V84.928H124.091V83.008H119.867V81.088H126.267V79.168H125.627V77.888H125.243V76.608H127.675V75.968H123.963V73.408H128.827V72.128H133.179V69.568H121.147V68.288H131.771V65.728H127.931V63.808H130.235V61.248H126.139V60.608H125.243V59.328H124.475V57.408H125.371V56.896C125.371 55.9573 125.584 55.2747 126.011 54.848H126.139C126.822 53.9093 127.76 53.44 128.955 53.44H151.867C153.062 53.44 154 53.9093 154.683 54.848H154.427C154.939 55.36 155.195 56.0427 155.195 56.896V57.408H154.299V59.328H155.067V60.608H155.963V61.248H160.059V63.808H157.755V65.728H161.595V68.288H150.971V69.568ZM244.093 108.608H238.845C238.333 109.461 237.736 110.315 237.053 111.168H239.357C239.272 111.339 239.101 111.552 238.845 111.808H233.213C232.872 112.149 232.53 112.491 232.189 112.832C231.933 113.088 231.592 113.387 231.165 113.728H231.037C230.61 114.069 230.141 114.411 229.629 114.752C229.202 115.008 228.733 115.307 228.221 115.648H225.917C225.149 116.16 224.296 116.629 223.357 117.056C222.418 117.397 221.48 117.781 220.541 118.208H220.029C219.773 118.293 219.474 118.379 219.133 118.464C218.877 118.549 218.536 118.677 218.109 118.848H232.701C232.36 118.933 231.976 119.019 231.549 119.104C231.208 119.189 230.824 119.317 230.397 119.488H223.997C222.888 119.744 221.736 119.957 220.541 120.128C219.346 120.384 218.109 120.597 216.829 120.768H212.989C211.624 120.939 210.173 121.067 208.637 121.152C207.101 121.237 205.48 121.28 203.773 121.28C202.152 121.28 200.616 121.237 199.165 121.152C197.8 121.067 196.477 120.939 195.197 120.768H198.909C197.714 120.597 196.562 120.384 195.453 120.128C194.344 119.957 193.277 119.744 192.253 119.488H198.653L196.477 118.848H181.885C181.629 118.677 181.33 118.549 180.989 118.464C180.733 118.379 180.434 118.293 180.093 118.208H180.477C179.538 117.781 178.6 117.355 177.661 116.928C176.808 116.501 175.954 116.075 175.101 115.648H177.405C176.893 115.307 176.381 115.008 175.869 114.752C175.442 114.411 175.016 114.069 174.589 113.728H174.845C174.418 113.387 174.034 113.088 173.693 112.832C173.352 112.491 173.01 112.149 172.669 111.808H178.173C178.088 111.637 178.002 111.509 177.917 111.424C177.832 111.339 177.746 111.253 177.661 111.168H175.229C174.888 110.741 174.546 110.315 174.205 109.888C173.864 109.461 173.522 109.035 173.181 108.608H178.557C178.216 108.181 177.96 107.755 177.789 107.328C177.618 106.816 177.448 106.389 177.277 106.048H174.845C174.674 105.707 174.589 105.493 174.589 105.408H170.621L170.237 104.128H167.293C167.208 103.872 167.165 103.488 167.165 102.976C167.165 102.293 167.208 101.824 167.293 101.568H168.189C168.616 100.544 169.298 99.904 170.237 99.648H169.981C170.152 99.5627 170.45 99.52 170.877 99.52H193.661C193.746 99.52 193.832 99.5627 193.917 99.648C194.088 99.648 194.216 99.648 194.301 99.648H194.557C195.24 99.8187 195.837 100.075 196.349 100.416C196.946 100.757 197.544 101.141 198.141 101.568H197.373C198.056 101.995 198.781 102.421 199.549 102.848C200.317 103.189 201.213 103.36 202.237 103.36C202.92 103.36 203.56 103.232 204.157 102.976C204.754 102.635 205.096 102.165 205.181 101.568H205.565V101.44C205.565 100.672 205.394 100.075 205.053 99.648C204.712 99.136 204.157 98.7093 203.389 98.368H201.853C201 97.9413 199.848 97.5147 198.397 97.088C197.032 96.6613 195.112 96.2347 192.637 95.808H193.789L191.741 95.424C191.058 95.2533 190.376 95.1253 189.693 95.04C189.01 94.8693 188.328 94.6987 187.645 94.528H188.157L185.981 93.888H186.237C185.128 93.5467 184.061 93.1627 183.037 92.736C182.013 92.3093 181.032 91.84 180.093 91.328H180.605L177.533 89.408H177.277C176.68 88.9813 176.125 88.5547 175.613 88.128C175.186 87.7013 174.76 87.2747 174.333 86.848H171.645C171.56 86.6773 171.474 86.5493 171.389 86.464C171.304 86.3787 171.218 86.2933 171.133 86.208H172.285C172.029 85.952 171.858 85.7387 171.773 85.568H168.189L166.781 83.648H172.285L171.517 82.368H169.725C169.298 81.4293 168.957 80.576 168.701 79.808H169.469C169.469 79.6373 169.426 79.5093 169.341 79.424C169.341 79.3387 169.341 79.2533 169.341 79.168H175.357C175.357 78.8267 175.272 78.4 175.101 77.888H163.837C163.837 77.5467 163.837 77.248 163.837 76.992C163.752 76.6507 163.666 76.3093 163.581 75.968H163.709L163.581 74.688H172.157C172.072 74.5173 172.029 74.304 172.029 74.048C172.029 73.7067 172.029 73.408 172.029 73.152C172.114 72.8107 172.157 72.4693 172.157 72.128H166.141L166.269 70.848H172.029L172.413 69.568H169.853C169.938 69.3973 170.024 69.184 170.109 68.928C170.194 68.672 170.28 68.4587 170.365 68.288H169.341C169.512 67.9467 169.682 67.648 169.853 67.392C170.024 67.0507 170.152 66.7093 170.237 66.368H170.749L171.517 65.088H171.389C171.56 64.7467 171.773 64.448 172.029 64.192C172.285 63.8507 172.541 63.5093 172.797 63.168C173.053 62.8267 173.309 62.528 173.565 62.272C173.821 61.9307 174.12 61.5893 174.461 61.248H174.205L174.845 60.608H174.717C174.802 60.4373 174.888 60.3093 174.973 60.224C175.144 60.1387 175.272 60.0533 175.357 59.968H175.613L177.149 58.688C177.32 58.5173 177.448 58.3893 177.533 58.304C177.704 58.2187 177.874 58.1333 178.045 58.048H175.613C177.064 57.1093 178.642 56.256 180.349 55.488H184.317C184.573 55.3173 184.829 55.1893 185.085 55.104C185.341 55.0187 185.64 54.9333 185.981 54.848H177.277C177.618 54.6773 177.917 54.5493 178.173 54.464C178.514 54.3787 178.856 54.2933 179.197 54.208H184.701C186.834 53.5253 189.096 53.0133 191.485 52.672C193.96 52.3307 196.562 52.16 199.293 52.16C202.109 52.16 204.754 52.3307 207.229 52.672C209.704 53.0133 212.008 53.5253 214.141 54.208H208.637C208.978 54.2933 209.277 54.3787 209.533 54.464C209.874 54.5493 210.216 54.6773 210.557 54.848H219.133L220.925 55.488H216.957C217.896 55.8293 218.792 56.256 219.645 56.768C220.498 57.1947 221.309 57.6213 222.077 58.048H224.509L225.533 58.688H225.661C226.002 58.8587 226.301 59.072 226.557 59.328C226.898 59.584 227.197 59.7973 227.453 59.968H227.325L228.093 60.608H228.221L228.989 61.248H229.245C230.013 61.8453 230.653 62.4853 231.165 63.168C231.848 63.7653 232.36 64.4053 232.701 65.088H232.829L233.597 66.368H232.957C233.128 66.7093 233.298 67.0507 233.469 67.392C233.64 67.648 233.768 67.9467 233.853 68.288H234.749L235.133 69.568H237.565L237.693 70.464V70.848H239.869C239.869 71.1893 239.784 71.616 239.613 72.128C239.016 73.3227 238.162 73.92 237.053 73.92H215.549C214.696 73.92 213.885 73.7493 213.117 73.408C212.434 72.9813 211.752 72.5547 211.069 72.128C210.472 71.7013 209.789 71.2747 209.021 70.848H206.845C205.992 70.336 205.053 70.08 204.029 70.08C203.176 70.08 202.493 70.336 201.981 70.848H196.349C195.922 71.2747 195.709 71.7013 195.709 72.128H201.725C201.725 72.5547 201.81 72.9813 201.981 73.408C202.152 73.8347 202.536 74.2613 203.133 74.688H194.685C195.112 74.8587 195.581 75.072 196.093 75.328C196.605 75.584 197.245 75.7973 198.013 75.968H197.885C198.909 76.3093 200.189 76.608 201.725 76.864C203.346 77.12 205.224 77.4187 207.357 77.76C207.528 77.76 207.656 77.8027 207.741 77.888C207.912 77.888 208.04 77.888 208.125 77.888H219.389C220.413 78.0587 221.394 78.272 222.333 78.528C223.357 78.6987 224.296 78.912 225.149 79.168H219.133C219.474 79.2533 219.773 79.3387 220.029 79.424C220.37 79.5093 220.712 79.6373 221.053 79.808H220.285C221.394 80.1493 222.376 80.5333 223.229 80.96C224.168 81.3867 225.064 81.856 225.917 82.368H227.837L229.885 83.648H224.381C224.808 83.9893 225.234 84.3307 225.661 84.672C226.088 84.928 226.472 85.2267 226.813 85.568H230.397L231.037 86.208H229.885L230.525 86.848H233.085C234.024 87.7867 234.706 88.64 235.133 89.408H235.389C235.645 89.7493 235.858 90.0907 236.029 90.432C236.2 90.688 236.37 90.9867 236.541 91.328H236.029C236.2 91.7547 236.37 92.1813 236.541 92.608C236.797 93.0347 236.968 93.4613 237.053 93.888H236.669L236.925 94.528H236.413C236.498 94.6987 236.541 94.912 236.541 95.168C236.541 95.424 236.584 95.6373 236.669 95.808H235.517C235.773 96.6613 235.901 97.5147 235.901 98.368H237.565V99.264C237.565 99.6053 237.522 99.9893 237.437 100.416C237.437 100.757 237.437 101.141 237.437 101.568H237.053C236.968 101.995 236.882 102.421 236.797 102.848C236.797 103.275 236.712 103.701 236.541 104.128H239.485C239.485 104.555 239.357 104.981 239.101 105.408H243.197C243.026 105.749 242.941 105.963 242.941 106.048H245.373C245.202 106.475 244.989 106.901 244.733 107.328C244.562 107.755 244.349 108.181 244.093 108.608ZM306.293 105.408H303.221V106.688H307.829V107.968H312.053V109.888H309.109V111.808H317.685V113.728H303.733V116.288H304.757V116.544C304.757 116.715 304.714 116.843 304.629 116.928C304.458 117.781 304.16 118.421 303.733 118.848H302.709C302.368 119.189 302.112 119.403 301.941 119.488H306.293C305.866 119.829 305.269 120 304.501 120H290.037C288.586 120 287.136 119.957 285.685 119.872C284.32 119.787 282.997 119.659 281.717 119.488H277.365C276.768 119.403 276.17 119.317 275.573 119.232C274.976 119.061 274.336 118.933 273.653 118.848H274.677C273.568 118.592 272.501 118.293 271.477 117.952C270.538 117.611 269.6 117.269 268.661 116.928H268.789C268.533 116.757 268.277 116.629 268.021 116.544C267.765 116.459 267.552 116.373 267.381 116.288H266.357C265.674 115.861 264.992 115.477 264.309 115.136C263.626 114.709 262.944 114.24 262.261 113.728H276.341C276 113.387 275.616 113.088 275.189 112.832C274.848 112.491 274.506 112.149 274.165 111.808H265.589L263.925 109.888H266.997C266.741 109.547 266.485 109.248 266.229 108.992C266.058 108.651 265.888 108.309 265.717 107.968H261.493L260.725 106.688H256.117C256.032 106.517 255.946 106.304 255.861 106.048C255.776 105.792 255.648 105.579 255.477 105.408H258.677L257.909 103.488H260.469L260.085 102.208C259.914 101.696 259.829 101.269 259.829 100.928H269.941C269.856 100.587 269.77 100.288 269.685 100.032C269.685 99.6907 269.685 99.3493 269.685 99.008H255.093C255.093 98.8373 255.05 98.7093 254.965 98.624C254.965 98.5387 254.965 98.4533 254.965 98.368H254.581C254.581 98.0267 254.538 97.728 254.453 97.472C254.453 97.1307 254.453 96.7893 254.453 96.448H254.069C254.069 96.1067 254.026 95.808 253.941 95.552C253.941 95.2107 253.941 94.8693 253.941 94.528H255.733V93.888H254.581V92.608H253.557V90.048H255.093V87.488H253.557V85.568H254.709V84.288H254.837V82.368H255.477V77.888H255.733V75.968H256.373V75.84H246.261C244.981 75.84 243.957 75.2427 243.189 74.048H245.109C244.853 73.536 244.725 72.9813 244.725 72.384V71.488H240.629V69.568H241.525V67.008H240.885V65.728H241.141V64.448H243.061V63.808H239.861V61.888H243.701V59.968H242.933V58.688H242.037V56.768H241.269V56.128H240.885C241.141 54.848 241.952 53.9947 243.317 53.568H244.085C244.341 53.4827 244.682 53.44 245.109 53.44H255.221V52.928H255.733V51.008H254.709V49.728H254.581V47.808H254.069V47.168H250.997V45.888H248.053V45.248H249.077V44.608H252.021V42.048H253.173V40.768H249.077V39.488H255.349V37.568H254.709V36.928H253.301V35.648H254.581V35.008H253.301V33.088H254.453V32.576C254.453 32.1493 254.538 31.68 254.709 31.168H256.373C256.97 29.8027 258.037 29.12 259.573 29.12H281.973C283.338 29.12 284.405 29.8027 285.173 31.168H283.509C283.68 31.68 283.765 32.1493 283.765 32.576V33.088H282.613V35.008H283.893V35.648H282.613V36.928H284.021V37.568H284.661V39.488H278.389V40.768H282.485V42.048H281.333V44.608H278.389V45.248H277.365V45.888H280.309V47.168H283.381V47.808H283.893V49.728H284.021V51.008H285.045V52.928H284.533V53.44H300.661C301.088 53.44 301.386 53.4827 301.557 53.568H300.789C301.984 53.9947 302.794 54.848 303.221 56.128H303.605C303.605 56.2133 303.605 56.2987 303.605 56.384C303.69 56.4693 303.733 56.5973 303.733 56.768H304.501V58.688H305.397V59.968H306.165V61.888H302.325V63.808H305.525V64.448H303.605V65.728H303.349V67.008H303.989V69.568H303.093V71.488H307.189V72.384C307.189 72.7253 307.146 73.024 307.061 73.28C306.976 73.536 306.848 73.792 306.677 74.048H304.885C304.117 75.2427 303.093 75.84 301.813 75.84H285.685V75.968H285.045V77.888H284.789V82.368H284.149V84.288H284.021V85.568H282.869V87.488H284.405V90.048H282.869C282.869 90.4747 282.869 90.9013 282.869 91.328C282.954 91.7547 283.04 92.1813 283.125 92.608H284.277C284.448 93.12 284.618 93.5467 284.789 93.888H285.813L286.197 94.528H284.405C285.344 95.7227 286.794 96.32 288.757 96.32H300.405C300.832 96.32 301.13 96.3627 301.301 96.448H301.685C302.709 96.704 303.434 97.344 303.861 98.368H304.245C304.245 98.4533 304.245 98.5387 304.245 98.624C304.33 98.7093 304.373 98.8373 304.373 99.008H318.965C318.965 99.0933 318.965 99.2213 318.965 99.392C319.05 99.4773 319.093 99.6053 319.093 99.776V100.928H308.853V103.488H306.293V105.408ZM396.69 83.008C396.775 83.4347 396.818 83.8613 396.818 84.288C396.818 84.7147 396.818 85.1413 396.818 85.568H387.73V86.848H382.482V88.128H387.474V88.768H381.714V90.688H378.514V91.328H385.682C385.682 91.584 385.639 91.7973 385.554 91.968H385.17V92.608H386.322V92.736C386.322 93.0773 386.279 93.4613 386.194 93.888C386.194 94.3147 386.151 94.7413 386.066 95.168H385.17L384.786 97.728H386.706C386.706 98.0693 386.621 98.496 386.45 99.008H386.066C385.981 99.3493 385.895 99.6907 385.81 100.032C385.725 100.288 385.639 100.587 385.554 100.928H386.578C386.493 101.355 386.365 101.781 386.194 102.208C386.023 102.635 385.853 103.061 385.682 103.488H383.762L383.25 104.768H383.506C383.335 105.109 383.25 105.323 383.25 105.408H382.738C382.397 106.261 381.927 107.115 381.33 107.968H381.586C381.501 108.139 381.373 108.352 381.202 108.608C381.031 108.864 380.861 109.077 380.69 109.248H380.562L379.026 111.168C378.941 111.253 378.855 111.339 378.77 111.424C378.685 111.509 378.557 111.637 378.386 111.808H377.746C377.405 112.149 377.063 112.491 376.722 112.832C376.381 113.088 375.997 113.387 375.57 113.728H371.73L369.042 115.648H369.554C369.383 115.733 369.213 115.819 369.042 115.904C368.871 115.989 368.701 116.117 368.53 116.288H367.634C367.463 116.373 367.25 116.459 366.994 116.544C366.738 116.629 366.525 116.757 366.354 116.928H373.266C372.839 117.184 372.37 117.44 371.858 117.696C371.346 117.867 370.834 118.037 370.322 118.208H368.146C367.549 118.464 366.909 118.72 366.226 118.976C365.543 119.147 364.861 119.317 364.178 119.488H364.69C363.666 119.744 362.599 119.957 361.49 120.128C360.381 120.384 359.229 120.597 358.034 120.768H362.002C360.637 120.939 359.229 121.067 357.778 121.152C356.327 121.237 354.834 121.28 353.298 121.28C351.677 121.28 350.141 121.237 348.69 121.152C347.325 121.067 345.917 120.939 344.466 120.768H340.37C339.261 120.597 338.109 120.384 336.914 120.128C335.805 119.957 334.738 119.744 333.714 119.488H333.33C332.647 119.317 331.965 119.147 331.282 118.976C330.685 118.72 330.045 118.464 329.362 118.208H331.41C330.983 118.037 330.514 117.867 330.002 117.696C329.49 117.44 329.021 117.184 328.594 116.928H321.682L320.53 116.288H321.426L320.274 115.648H319.762C318.738 114.965 317.842 114.325 317.074 113.728H320.914C320.573 113.387 320.231 113.088 319.89 112.832C319.549 112.491 319.207 112.149 318.866 111.808H319.506C319.421 111.637 319.335 111.509 319.25 111.424C319.165 111.339 319.037 111.253 318.866 111.168L317.33 109.248H317.458L316.562 107.968H316.306C315.709 107.115 315.239 106.261 314.898 105.408H315.282C315.111 105.067 315.026 104.853 315.026 104.768H314.642L314.13 103.488H316.05C315.965 103.061 315.837 102.635 315.666 102.208C315.495 101.781 315.325 101.355 315.154 100.928H314.13C314.045 100.587 313.959 100.288 313.874 100.032C313.789 99.6907 313.703 99.3493 313.618 99.008H312.85L312.466 97.728H311.186L310.802 95.168H312.082C311.997 94.7413 311.911 94.3147 311.826 93.888C311.826 93.4613 311.826 93.0773 311.826 92.736V92.608H309.522V91.968H308.882C308.882 91.7973 308.839 91.6693 308.754 91.584C308.754 91.4987 308.754 91.4133 308.754 91.328H315.922C315.922 91.072 315.879 90.8587 315.794 90.688H308.626V88.768H311.698V88.128H313.234V86.848H315.922V85.568H308.114C308.114 85.1413 308.114 84.7147 308.114 84.288C308.114 83.8613 308.157 83.4347 308.242 83.008H306.578V81.728H319.25C319.335 81.472 319.378 81.1307 319.378 80.704V79.808H315.922C315.922 79.4667 315.922 79.168 315.922 78.912C316.007 78.5707 316.05 78.2293 316.05 77.888H317.33L317.714 75.328H313.49C313.575 74.9867 313.661 74.688 313.746 74.432C313.831 74.0907 313.917 73.7493 314.002 73.408H313.106C313.277 72.9813 313.405 72.5547 313.49 72.128C313.661 71.616 313.831 71.1893 314.002 70.848H314.13C314.215 70.6773 314.301 70.464 314.386 70.208C314.471 69.952 314.557 69.7387 314.642 69.568H314.514C314.514 69.4827 314.599 69.2693 314.77 68.928H315.41C315.751 68.0747 316.221 67.2213 316.818 66.368H314.258L315.026 65.088H319.762C319.847 64.9173 320.018 64.704 320.274 64.448H310.93C311.101 64.1067 311.314 63.808 311.57 63.552C311.911 63.2107 312.21 62.8693 312.466 62.528H315.41C315.837 62.1013 316.263 61.6747 316.69 61.248C317.202 60.736 317.671 60.3093 318.098 59.968H323.986C324.754 59.2853 325.65 58.6453 326.674 58.048H329.106C329.447 57.792 329.789 57.5787 330.13 57.408C330.557 57.152 330.941 56.9387 331.282 56.768H323.73C324.498 56.3413 325.437 55.9147 326.546 55.488H330.002C331.965 54.72 334.013 54.08 336.146 53.568H332.306C336.487 52.6293 340.925 52.16 345.618 52.16C350.311 52.16 354.749 52.6293 358.93 53.568H362.898C365.031 54.08 367.037 54.72 368.914 55.488H365.33C366.439 55.9147 367.378 56.3413 368.146 56.768H375.698C376.125 56.9387 376.509 57.152 376.85 57.408C377.277 57.5787 377.661 57.792 378.002 58.048H375.57L378.258 59.968H372.37C372.882 60.3093 373.351 60.736 373.778 61.248C374.29 61.6747 374.759 62.1013 375.186 62.528H372.242C372.498 62.8693 372.754 63.2107 373.01 63.552C373.351 63.808 373.607 64.1067 373.778 64.448H383.25L383.634 65.088H379.026L379.794 66.368H382.354C382.951 67.2213 383.421 68.0747 383.762 68.928H383.122C383.293 69.2693 383.378 69.4827 383.378 69.568H383.634L384.146 70.848H384.018C384.189 71.1893 384.359 71.616 384.53 72.128C384.701 72.5547 384.829 72.9813 384.914 73.408H386.194L386.578 75.328H385.81C385.981 75.6693 386.066 76.096 386.066 76.608C386.151 77.0347 386.237 77.4613 386.322 77.888H387.346C387.431 78.2293 387.474 78.5707 387.474 78.912C387.474 79.168 387.517 79.4667 387.602 79.808H382.61V80.704C382.61 81.1307 382.653 81.472 382.738 81.728H380.178V83.008H396.69ZM347.538 77.888C347.453 78.2293 347.367 78.5707 347.282 78.912C347.282 79.168 347.282 79.4667 347.282 79.808H350.866C350.781 80.064 350.738 80.32 350.738 80.576C350.738 80.832 350.738 81.088 350.738 81.344V81.728H351.25V81.344C351.25 81.088 351.207 80.832 351.122 80.576C351.122 80.32 351.122 80.064 351.122 79.808H356.114C356.114 79.4667 356.071 79.168 355.986 78.912C355.986 78.5707 355.986 78.2293 355.986 77.888H354.962C354.877 77.376 354.749 76.9067 354.578 76.48C354.493 76.0533 354.365 75.6693 354.194 75.328H355.09C354.749 74.56 354.237 73.92 353.554 73.408H352.274C351.421 72.896 350.311 72.64 348.946 72.64C347.581 72.64 346.514 72.896 345.746 73.408H346.642C346.301 73.664 346.002 73.9627 345.746 74.304C345.49 74.56 345.277 74.9013 345.106 75.328H349.33C349.245 75.6693 349.117 76.0533 348.946 76.48C348.861 76.9067 348.775 77.376 348.69 77.888H347.538ZM356.242 85.568H365.33V83.008H348.818C348.733 82.6667 348.69 82.24 348.69 81.728H338.066C338.066 82.24 338.023 82.6667 337.938 83.008H339.602V85.568H347.41V86.848H344.594V88.128H343.058V88.768H339.986C339.986 89.1093 339.986 89.4507 339.986 89.792C340.071 90.048 340.114 90.3467 340.114 90.688H350.226V88.768H355.986V88.128H350.994V86.848H356.242V85.568ZM354.194 91.968V91.328H340.242V91.968H340.882V92.096C340.882 92.1813 340.882 92.2667 340.882 92.352C340.967 92.4373 341.01 92.5227 341.01 92.608H343.186C343.271 93.0347 343.314 93.4613 343.314 93.888C343.314 94.3147 343.357 94.7413 343.442 95.168H342.162C342.333 96.2773 342.503 97.1307 342.674 97.728H344.082C344.253 98.24 344.423 98.6667 344.594 99.008H345.49C346.258 100.203 347.709 100.8 349.842 100.8C351.975 100.8 353.426 100.203 354.194 99.008H354.706C354.791 98.8373 354.877 98.6667 354.962 98.496C355.047 98.24 355.133 97.984 355.218 97.728H353.298C353.383 97.3013 353.469 96.9173 353.554 96.576C353.639 96.1493 353.725 95.68 353.81 95.168H354.706C354.791 94.7413 354.834 94.3147 354.834 93.888C354.834 93.4613 354.877 93.0347 354.962 92.608H353.81V91.968H354.194ZM453.215 63.168H458.079V65.728H457.823V68.288H453.343V70.208H454.495V72.768H453.471V75.328H451.167V75.968H443.103V76.864C443.103 77.0347 443.06 77.2053 442.975 77.376C442.975 77.5467 442.932 77.7173 442.847 77.888H445.791C445.364 79.5093 444.255 80.32 442.463 80.32H425.951C425.61 80.32 425.268 80.32 424.927 80.32C424.671 80.32 424.415 80.3627 424.159 80.448H429.279C428.852 80.5333 428.468 80.6187 428.127 80.704C427.786 80.7893 427.402 80.9173 426.975 81.088H431.199C430.943 81.1733 430.559 81.3867 430.047 81.728H432.479L431.711 82.368H432.351C431.839 82.88 431.455 83.52 431.199 84.288H427.359C427.188 84.6293 427.103 84.8427 427.103 84.928H425.823C425.823 85.0133 425.78 85.0987 425.695 85.184C425.695 85.2693 425.695 85.3973 425.695 85.568H427.231C427.146 85.7387 427.103 85.952 427.103 86.208C427.103 86.3787 427.06 86.592 426.975 86.848H427.743V88.768H425.951V90.048H427.743V91.968H429.663V94.528H426.847V95.168H424.799V95.808H432.479V97.728H428.639V99.008H429.919V100.288H426.975V102.848H425.311V103.488H423.647V105.408H427.999V107.328H425.695V109.248H427.999V109.888H427.743V111.168H424.927V112.448H426.975V115.008H427.487V116.928H426.975C426.804 118.123 426.25 118.976 425.311 119.488H424.159C423.732 119.829 423.135 120 422.367 120H398.047C397.279 120 396.682 119.829 396.255 119.488H397.407C396.468 118.976 395.914 118.123 395.743 116.928H396.255V115.008H395.743V112.448H393.695V111.168H396.511V109.888H396.767V109.248H394.463V107.328H396.767V105.408H392.415V103.488H394.079V102.848H395.743V100.288H398.687V99.008H397.407V97.728H401.247V95.808H393.567V95.168H395.615V94.528H398.431V91.968H396.511V90.048H394.719V88.768H396.511V86.848H395.743V85.568H394.207V84.928H395.487V84.288H399.327V82.368H398.687V81.728H396.383V81.088H392.159V80.448H387.039V77.888H384.223V75.968H392.287V75.328H394.591V72.768H395.615V70.208H394.463V68.288H398.943V65.728H399.199V63.168H394.335V61.248H398.431V58.688H394.463V58.048H395.743V56.896C395.743 56.4693 395.828 56 395.999 55.488H395.871C396.468 54.1227 397.535 53.44 399.071 53.44H421.471C422.922 53.44 423.946 54.1227 424.543 55.488H424.799C424.97 56 425.055 56.4693 425.055 56.896V58.048H423.775V58.688H427.743V59.072L428.255 58.688H428.511C428.682 58.5173 428.852 58.3893 429.023 58.304C429.194 58.2187 429.322 58.1333 429.407 58.048H429.663C431.37 56.9387 433.034 56.0853 434.655 55.488H434.911C436.618 54.8053 438.324 54.2933 440.031 53.952C441.738 53.6107 443.53 53.44 445.407 53.44H451.551C453.087 53.44 454.154 54.1227 454.751 55.488H454.495C454.666 56 454.751 56.4693 454.751 56.896V58.048H454.623V58.688H454.367V61.248H453.215V63.168ZM539.561 58.688H529.193L528.937 59.328H539.689L538.537 61.888H533.545L532.521 64.448H535.209L534.185 67.008H529.961L529.449 68.288H532.649L532.137 69.568H531.369L531.113 70.208H530.985L530.089 72.128H531.369L530.601 74.048H521.513L520.873 75.328H527.913L527.657 75.968H516.137L515.625 77.248H514.601L513.449 79.808H530.345L530.089 80.448H527.145L526.505 81.728H527.401L527.145 82.368H526.377L525.225 84.928L524.457 86.848H522.921L522.025 88.768H523.049L522.153 90.688H522.537L522.281 91.328H522.153L521.641 92.608H522.281L521.769 93.888H521.129L520.617 95.168H520.489L519.721 97.088H520.489L520.233 97.728H519.465L518.569 99.648H513.833L512.681 102.208H515.753L515.241 103.488H518.953L517.929 106.048H513.705L513.193 107.328H515.241L514.217 109.888H513.577L512.425 112.448H513.321L512.809 113.728H512.553L511.913 115.008H511.657L510.761 116.928H511.145L510.249 118.848H509.225L508.329 120.768H506.537L505.897 122.048H515.241L514.217 124.608H504.745L503.593 127.168H508.841L507.689 129.728H512.937L511.785 132.288H512.041L511.017 134.848H494.889L494.249 136.128H497.961L497.449 137.408H503.081L502.441 138.688H489.641L489.001 139.968H495.657L495.145 141.248C494.718 142.357 493.993 143.211 492.969 143.808H487.593C486.91 144.149 486.185 144.32 485.417 144.32H464.425C463.657 144.32 463.102 144.149 462.761 143.808H468.009C467.241 143.211 466.857 142.485 466.857 141.632V141.248C466.857 140.907 466.9 140.608 466.985 140.352L467.113 139.968H460.457L461.097 138.688H473.897L474.409 137.408H468.777L469.289 136.128H465.705L466.217 134.848H482.345L483.497 132.288H483.241L484.265 129.728H479.017L480.041 127.168H474.921L475.945 124.608H485.417L486.441 122.048H477.097L477.609 120.768H479.529L480.297 118.848H481.449L482.217 116.928H481.961L482.473 115.776L482.089 115.008H482.345L481.833 113.728H482.217L481.577 112.448H480.681L479.657 109.888H480.297L479.145 107.328H477.097L476.457 106.048H480.681L479.657 103.488H475.817L475.305 102.208H472.233L471.209 99.648H475.945L475.177 97.728H475.945L475.689 97.088H474.793L474.025 95.168H474.153L473.641 93.888H474.153L473.641 92.608H472.873L472.361 91.328H472.489L472.233 90.688H471.849L471.081 88.768H470.185L469.289 86.848H470.825L470.057 84.928H468.265L467.241 82.368H468.649L468.265 81.728H470.313L469.673 80.448H466.473L466.089 79.808H465.961L464.809 77.248H448.809L448.169 75.968H457.769L457.513 75.328H458.025L457.385 74.048H463.785L462.889 72.128H464.041L463.273 70.208H463.529L463.273 69.568H463.145L462.633 68.288H462.249L461.609 67.008H462.889L461.865 64.448H458.409L457.257 61.888H459.945L458.921 59.328H452.009L451.753 58.688H461.865L461.353 57.408C461.268 57.152 461.225 56.8533 461.225 56.512C461.225 56.3413 461.268 56.2133 461.353 56.128H463.145C463.572 54.336 464.596 53.44 466.217 53.44H487.849C489.044 53.44 489.94 53.7387 490.537 54.336C491.134 54.848 491.561 55.4453 491.817 56.128H490.025C490.025 56.2133 490.025 56.2987 490.025 56.384C490.11 56.384 490.153 56.4267 490.153 56.512L490.537 57.408L490.921 58.688H480.681L480.937 59.328H487.849L488.873 61.888H486.185L487.081 64.448H490.537L491.433 67.008H490.153L490.665 68.288H491.049L491.817 70.208H491.561L492.201 72.128H491.177L491.817 74.048H485.545L485.929 75.328H485.417L485.673 75.968H476.201L476.585 77.248H487.849L488.361 75.968H499.881L500.137 75.328H493.097L493.609 74.048H502.569L503.337 72.128H502.057L502.825 70.208H502.953L503.209 69.568H503.977L504.361 68.288H501.161L501.673 67.008H505.769L506.793 64.448H503.977L505.001 61.888H509.993L510.889 59.328H500.137L500.393 58.688H510.761L511.273 57.408L511.529 56.512C511.614 56.4267 511.657 56.2987 511.657 56.128H507.433C507.86 55.4453 508.372 54.848 508.969 54.336C509.652 53.7387 510.548 53.44 511.657 53.44H533.033C533.801 53.44 534.484 53.7387 535.081 54.336C535.678 54.848 535.977 55.4453 535.977 56.128H540.201C540.201 56.64 540.158 57.0667 540.073 57.408L539.561 58.688ZM502.569 80.448L502.697 79.808H493.865L494.121 80.448H497.321L497.833 81.728H495.913L496.169 82.368H494.761L495.657 84.928H497.449L497.705 85.696L497.961 84.928L498.857 82.368H499.753L500.009 81.728H499.113L499.497 80.448H502.569Z" fill="#D379F1"/>
<path d="M139.016 91.048V91.688H149V92.968H148.488V94.888H121.992V95.528H126.6V97.448H140.68V98.728H133.384V101.288H133V101.928H124.552V103.848H137.096V104.488H137.608V106.408H138.888V108.968H114.184V110.888H140.296V112.168H131.592V114.088H130.44V115.368H133.384V116.648H131.464V117.928H135.944L135.56 119.208H141.576C141.405 119.464 141.192 119.72 140.936 119.976C140.765 120.147 140.552 120.317 140.296 120.488H143.24C142.813 120.829 142.216 121 141.448 121H116.36C115.592 121 114.995 120.829 114.568 120.488H111.624C111.027 120.232 110.6 119.805 110.344 119.208H104.328L103.944 117.928H99.4639V116.648H101.384V115.368H98.4399V114.088H99.5919V112.168H108.296V110.888H85.1279V112.168H74.5039V114.088H81.7999V115.368H80.0079V116.648H86.6639V117.928H79.4959L79.1119 119.208H81.9279C81.5866 119.805 81.2026 120.232 80.7759 120.488H77.7039C77.2772 120.829 76.6799 121 75.9119 121H50.8239C49.9706 121 49.3306 120.829 48.9039 120.488H51.9759C51.5492 120.232 51.1652 119.805 50.8239 119.208H47.8799C47.6239 118.781 47.4959 118.355 47.4959 117.928H54.6639V116.648H48.0079V115.368H49.7999V114.088H42.5039V112.168H53.1279V110.888H59.2719V108.968H39.5599V106.408H46.8559V104.488H51.9759V103.848H48.3919V101.928H42.3759V101.288H43.6559V98.728H47.7519V97.448H49.6719V95.528H40.4559V94.888H64.1359V92.968H35.2079V91.688H62.4719V91.048H49.1599V89.128H56.8399V88.488H58.3759V87.848H57.7359V85.288H45.0639V83.368H49.2879V82.728H48.1359V80.808H48.6479V80.168H48.7759V78.888H48.9039V78.248H47.2399V77.608H42.2479V75.688H43.9119V73.768H41.3519V71.848H47.7519V69.288H46.3439V68.008H36.9999V67.368H51.9759V66.088H55.5599V65.448H20.9999V64.808H41.3519V64.168H48.6479V62.248H35.5919V59.688H32.0079V57.768H47.3679V55.208H48.6479V53.288H56.8399V52.648H49.7999V50.088H55.5599V48.808H48.6479V48.168H46.2159V46.888H42.5039V45.608H38.0239V43.048H46.0879V41.128H50.9519V39.208H48.6479V37.928H45.4479V37.288H47.2399V36.008H46.8559V34.856C46.8559 34.2587 46.9839 33.7893 47.2399 33.448H55.4319C55.5172 33.192 55.6452 32.9787 55.8159 32.808C55.9866 32.552 56.1572 32.3387 56.3279 32.168H76.0399C76.5519 31.656 77.2772 31.4 78.2159 31.4H127.368C128.221 31.4 128.947 31.656 129.544 32.168H149.256C149.427 32.3387 149.597 32.552 149.768 32.808C150.024 32.9787 150.195 33.192 150.28 33.448H133.768C133.939 33.96 134.024 34.4293 134.024 34.856V36.008H134.664V37.288H136.456V37.928H133V39.208H131.464V41.128H136.456V43.048H124.424V45.608H138.248V46.888H128.264V48.168H132.36V48.808H130.312V50.088H139.912V52.648H125.832V53.288H136.712V55.208H134.792V57.768H124.552V59.688H120.328V62.248H133.384V64.168H126.088V64.808H105.736V65.448H140.296V66.088H136.712V67.368H121.736V68.008H131.08V69.288H132.488V71.848H126.088V73.768H128.648V75.688H126.984V77.608H131.976V78.248H133.64V78.888H133.512V80.168H133.384V80.808H132.872V82.728H134.024V83.368H129.8V85.288H142.472V87.848H143.112V88.488H141.576V89.128H133.896V91.048H139.016ZM64.0079 57.768V59.688H67.5919V61.736H88.3279V59.688H92.5519V57.768H102.792V55.208H104.712V53.288H93.8319V52.648H107.912V50.088H98.3119V48.808H100.36V48.168H96.2639V46.888H106.248V45.608H92.4239V43.048H104.456V41.128H99.4639V39.208H101V37.928H104.456V37.288H102.664V36.008H102.024V34.856C102.024 34.4293 102.109 33.96 102.28 33.448H118.792C118.963 33.192 119.133 32.9787 119.304 32.808C119.475 32.552 119.645 32.3387 119.816 32.168H85.7679C86.1946 32.5093 86.5359 32.936 86.7919 33.448H78.5999C78.7706 33.704 78.8559 34.1733 78.8559 34.856V36.008H79.2399V37.288H77.4479V37.928H80.6479V39.208H82.9519V41.128H78.0879V43.048H70.0239V45.608H74.5039V46.888H78.2159V48.168H80.6479V48.808H87.5599V50.088H81.7999V52.648H88.8399V53.288H80.6479V55.208H79.3679V57.768H64.0079ZM117 92.968V91.688H107.016V91.048H101.896V89.896H81.1599V91.048H94.4719V91.688H67.2079V92.968H96.1359V94.888H116.488V92.968H117ZM108.68 97.448H94.5999V95.528H89.9919V94.888H72.4559V95.528H81.6719V97.448H79.7519V98.728H75.6559V101.288H74.3759V101.928H80.3919V103.848H83.9759V104.488H78.8559V106.408H71.5599V108.968H106.888V106.408H105.608V104.488H105.096V103.848H92.5519V101.928H101V101.288H101.384V98.728H108.68V97.448ZM145.603 43.688V41.128H145.475V39.208H146.627V38.568H147.395V36.008H146.755V34.088H146.883V31.528H147.395V29.608H147.139V28.456C147.139 27.7733 147.224 27.304 147.395 27.048H148.675L149.059 26.408H148.035C148.718 25.4693 149.656 25 150.851 25H172.483C173.678 25 174.616 25.4693 175.299 26.408H176.323L176.707 27.048H175.299C175.555 27.3893 175.683 27.8587 175.683 28.456V29.608H175.939V31.528H175.427V34.088H175.299V36.008H175.939V38.568H175.171V39.208H174.019V41.128H174.147V43.688H175.043V43.944C175.043 44.712 174.744 45.48 174.147 46.248H172.611C172.014 47.016 171.16 47.4 170.051 47.4H148.419C147.31 47.4 146.414 47.016 145.731 46.248H147.267C146.755 45.5653 146.499 44.7973 146.499 43.944V43.688H145.603ZM171.971 70.568H184.003V73.128H179.651V74.408H174.787V76.968H178.499V77.608H176.067V78.888H176.451V80.168H177.091V82.088H170.691V84.008H174.915V85.928H174.147V87.208H176.323V89.128H176.835V91.048H176.067V92.968H176.707V94.248H176.067V96.808H175.811V98.728H175.299V100.648H175.811V101.928H176.067V104.488H175.555V105.768H176.195V107.048H176.067V108.968H176.579V110.888H176.963V111.528H176.067V114.088H174.275V116.648H175.555V117.544C175.555 117.971 175.512 118.312 175.427 118.568H174.531C174.275 119.421 173.806 120.061 173.123 120.488H175.683C175.256 120.829 174.616 121 173.763 121H150.851C150.083 121 149.486 120.829 149.059 120.488H146.499C145.731 120.061 145.219 119.421 144.963 118.568H145.859C145.774 118.312 145.731 117.971 145.731 117.544V116.648H144.451V114.088H146.243V111.528H147.139V110.888H146.755V108.968H146.243V107.048H146.371V105.768H145.731V104.488H146.243V101.928H145.987V100.648H145.475V98.728H145.987V96.808H146.243V94.248H146.883V92.968H146.243V91.048H147.011V89.128H146.499V87.208H144.323V85.928H145.091V84.008H140.867V82.088H147.267V80.168H146.627V78.888H146.243V77.608H148.675V76.968H144.963V74.408H149.827V73.128H154.179V70.568H142.147V69.288H152.771V66.728H148.931V64.808H151.235V62.248H147.139V61.608H146.243V60.328H145.475V58.408H146.371V57.896C146.371 56.9573 146.584 56.2747 147.011 55.848H147.139C147.822 54.9093 148.76 54.44 149.955 54.44H172.867C174.062 54.44 175 54.9093 175.683 55.848H175.427C175.939 56.36 176.195 57.0427 176.195 57.896V58.408H175.299V60.328H176.067V61.608H176.963V62.248H181.059V64.808H178.755V66.728H182.595V69.288H171.971V70.568ZM265.093 109.608H259.845C259.333 110.461 258.736 111.315 258.053 112.168H260.357C260.272 112.339 260.101 112.552 259.845 112.808H254.213C253.872 113.149 253.53 113.491 253.189 113.832C252.933 114.088 252.592 114.387 252.165 114.728H252.037C251.61 115.069 251.141 115.411 250.629 115.752C250.202 116.008 249.733 116.307 249.221 116.648H246.917C246.149 117.16 245.296 117.629 244.357 118.056C243.418 118.397 242.48 118.781 241.541 119.208H241.029C240.773 119.293 240.474 119.379 240.133 119.464C239.877 119.549 239.536 119.677 239.109 119.848H253.701C253.36 119.933 252.976 120.019 252.549 120.104C252.208 120.189 251.824 120.317 251.397 120.488H244.997C243.888 120.744 242.736 120.957 241.541 121.128C240.346 121.384 239.109 121.597 237.829 121.768H233.989C232.624 121.939 231.173 122.067 229.637 122.152C228.101 122.237 226.48 122.28 224.773 122.28C223.152 122.28 221.616 122.237 220.165 122.152C218.8 122.067 217.477 121.939 216.197 121.768H219.909C218.714 121.597 217.562 121.384 216.453 121.128C215.344 120.957 214.277 120.744 213.253 120.488H219.653L217.477 119.848H202.885C202.629 119.677 202.33 119.549 201.989 119.464C201.733 119.379 201.434 119.293 201.093 119.208H201.477C200.538 118.781 199.6 118.355 198.661 117.928C197.808 117.501 196.954 117.075 196.101 116.648H198.405C197.893 116.307 197.381 116.008 196.869 115.752C196.442 115.411 196.016 115.069 195.589 114.728H195.845C195.418 114.387 195.034 114.088 194.693 113.832C194.352 113.491 194.01 113.149 193.669 112.808H199.173C199.088 112.637 199.002 112.509 198.917 112.424C198.832 112.339 198.746 112.253 198.661 112.168H196.229C195.888 111.741 195.546 111.315 195.205 110.888C194.864 110.461 194.522 110.035 194.181 109.608H199.557C199.216 109.181 198.96 108.755 198.789 108.328C198.618 107.816 198.448 107.389 198.277 107.048H195.845C195.674 106.707 195.589 106.493 195.589 106.408H191.621L191.237 105.128H188.293C188.208 104.872 188.165 104.488 188.165 103.976C188.165 103.293 188.208 102.824 188.293 102.568H189.189C189.616 101.544 190.298 100.904 191.237 100.648H190.981C191.152 100.563 191.45 100.52 191.877 100.52H214.661C214.746 100.52 214.832 100.563 214.917 100.648C215.088 100.648 215.216 100.648 215.301 100.648H215.557C216.24 100.819 216.837 101.075 217.349 101.416C217.946 101.757 218.544 102.141 219.141 102.568H218.373C219.056 102.995 219.781 103.421 220.549 103.848C221.317 104.189 222.213 104.36 223.237 104.36C223.92 104.36 224.56 104.232 225.157 103.976C225.754 103.635 226.096 103.165 226.181 102.568H226.565V102.44C226.565 101.672 226.394 101.075 226.053 100.648C225.712 100.136 225.157 99.7093 224.389 99.368H222.853C222 98.9413 220.848 98.5147 219.397 98.088C218.032 97.6613 216.112 97.2347 213.637 96.808H214.789L212.741 96.424C212.058 96.2533 211.376 96.1253 210.693 96.04C210.01 95.8693 209.328 95.6987 208.645 95.528H209.157L206.981 94.888H207.237C206.128 94.5467 205.061 94.1627 204.037 93.736C203.013 93.3093 202.032 92.84 201.093 92.328H201.605L198.533 90.408H198.277C197.68 89.9813 197.125 89.5547 196.613 89.128C196.186 88.7013 195.76 88.2747 195.333 87.848H192.645C192.56 87.6773 192.474 87.5493 192.389 87.464C192.304 87.3787 192.218 87.2933 192.133 87.208H193.285C193.029 86.952 192.858 86.7387 192.773 86.568H189.189L187.781 84.648H193.285L192.517 83.368H190.725C190.298 82.4293 189.957 81.576 189.701 80.808H190.469C190.469 80.6373 190.426 80.5093 190.341 80.424C190.341 80.3387 190.341 80.2533 190.341 80.168H196.357C196.357 79.8267 196.272 79.4 196.101 78.888H184.837C184.837 78.5467 184.837 78.248 184.837 77.992C184.752 77.6507 184.666 77.3093 184.581 76.968H184.709L184.581 75.688H193.157C193.072 75.5173 193.029 75.304 193.029 75.048C193.029 74.7067 193.029 74.408 193.029 74.152C193.114 73.8107 193.157 73.4693 193.157 73.128H187.141L187.269 71.848H193.029L193.413 70.568H190.853C190.938 70.3973 191.024 70.184 191.109 69.928C191.194 69.672 191.28 69.4587 191.365 69.288H190.341C190.512 68.9467 190.682 68.648 190.853 68.392C191.024 68.0507 191.152 67.7093 191.237 67.368H191.749L192.517 66.088H192.389C192.56 65.7467 192.773 65.448 193.029 65.192C193.285 64.8507 193.541 64.5093 193.797 64.168C194.053 63.8267 194.309 63.528 194.565 63.272C194.821 62.9307 195.12 62.5893 195.461 62.248H195.205L195.845 61.608H195.717C195.802 61.4373 195.888 61.3093 195.973 61.224C196.144 61.1387 196.272 61.0533 196.357 60.968H196.613L198.149 59.688C198.32 59.5173 198.448 59.3893 198.533 59.304C198.704 59.2187 198.874 59.1333 199.045 59.048H196.613C198.064 58.1093 199.642 57.256 201.349 56.488H205.317C205.573 56.3173 205.829 56.1893 206.085 56.104C206.341 56.0187 206.64 55.9333 206.981 55.848H198.277C198.618 55.6773 198.917 55.5493 199.173 55.464C199.514 55.3787 199.856 55.2933 200.197 55.208H205.701C207.834 54.5253 210.096 54.0133 212.485 53.672C214.96 53.3307 217.562 53.16 220.293 53.16C223.109 53.16 225.754 53.3307 228.229 53.672C230.704 54.0133 233.008 54.5253 235.141 55.208H229.637C229.978 55.2933 230.277 55.3787 230.533 55.464C230.874 55.5493 231.216 55.6773 231.557 55.848H240.133L241.925 56.488H237.957C238.896 56.8293 239.792 57.256 240.645 57.768C241.498 58.1947 242.309 58.6213 243.077 59.048H245.509L246.533 59.688H246.661C247.002 59.8587 247.301 60.072 247.557 60.328C247.898 60.584 248.197 60.7973 248.453 60.968H248.325L249.093 61.608H249.221L249.989 62.248H250.245C251.013 62.8453 251.653 63.4853 252.165 64.168C252.848 64.7653 253.36 65.4053 253.701 66.088H253.829L254.597 67.368H253.957C254.128 67.7093 254.298 68.0507 254.469 68.392C254.64 68.648 254.768 68.9467 254.853 69.288H255.749L256.133 70.568H258.565L258.693 71.464V71.848H260.869C260.869 72.1893 260.784 72.616 260.613 73.128C260.016 74.3227 259.162 74.92 258.053 74.92H236.549C235.696 74.92 234.885 74.7493 234.117 74.408C233.434 73.9813 232.752 73.5547 232.069 73.128C231.472 72.7013 230.789 72.2747 230.021 71.848H227.845C226.992 71.336 226.053 71.08 225.029 71.08C224.176 71.08 223.493 71.336 222.981 71.848H217.349C216.922 72.2747 216.709 72.7013 216.709 73.128H222.725C222.725 73.5547 222.81 73.9813 222.981 74.408C223.152 74.8347 223.536 75.2613 224.133 75.688H215.685C216.112 75.8587 216.581 76.072 217.093 76.328C217.605 76.584 218.245 76.7973 219.013 76.968H218.885C219.909 77.3093 221.189 77.608 222.725 77.864C224.346 78.12 226.224 78.4187 228.357 78.76C228.528 78.76 228.656 78.8027 228.741 78.888C228.912 78.888 229.04 78.888 229.125 78.888H240.389C241.413 79.0587 242.394 79.272 243.333 79.528C244.357 79.6987 245.296 79.912 246.149 80.168H240.133C240.474 80.2533 240.773 80.3387 241.029 80.424C241.37 80.5093 241.712 80.6373 242.053 80.808H241.285C242.394 81.1493 243.376 81.5333 244.229 81.96C245.168 82.3867 246.064 82.856 246.917 83.368H248.837L250.885 84.648H245.381C245.808 84.9893 246.234 85.3307 246.661 85.672C247.088 85.928 247.472 86.2267 247.813 86.568H251.397L252.037 87.208H250.885L251.525 87.848H254.085C255.024 88.7867 255.706 89.64 256.133 90.408H256.389C256.645 90.7493 256.858 91.0907 257.029 91.432C257.2 91.688 257.37 91.9867 257.541 92.328H257.029C257.2 92.7547 257.37 93.1813 257.541 93.608C257.797 94.0347 257.968 94.4613 258.053 94.888H257.669L257.925 95.528H257.413C257.498 95.6987 257.541 95.912 257.541 96.168C257.541 96.424 257.584 96.6373 257.669 96.808H256.517C256.773 97.6613 256.901 98.5147 256.901 99.368H258.565V100.264C258.565 100.605 258.522 100.989 258.437 101.416C258.437 101.757 258.437 102.141 258.437 102.568H258.053C257.968 102.995 257.882 103.421 257.797 103.848C257.797 104.275 257.712 104.701 257.541 105.128H260.485C260.485 105.555 260.357 105.981 260.101 106.408H264.197C264.026 106.749 263.941 106.963 263.941 107.048H266.373C266.202 107.475 265.989 107.901 265.733 108.328C265.562 108.755 265.349 109.181 265.093 109.608ZM327.293 106.408H324.221V107.688H328.829V108.968H333.053V110.888H330.109V112.808H338.685V114.728H324.733V117.288H325.757V117.544C325.757 117.715 325.714 117.843 325.629 117.928C325.458 118.781 325.16 119.421 324.733 119.848H323.709C323.368 120.189 323.112 120.403 322.941 120.488H327.293C326.866 120.829 326.269 121 325.501 121H311.037C309.586 121 308.136 120.957 306.685 120.872C305.32 120.787 303.997 120.659 302.717 120.488H298.365C297.768 120.403 297.17 120.317 296.573 120.232C295.976 120.061 295.336 119.933 294.653 119.848H295.677C294.568 119.592 293.501 119.293 292.477 118.952C291.538 118.611 290.6 118.269 289.661 117.928H289.789C289.533 117.757 289.277 117.629 289.021 117.544C288.765 117.459 288.552 117.373 288.381 117.288H287.357C286.674 116.861 285.992 116.477 285.309 116.136C284.626 115.709 283.944 115.24 283.261 114.728H297.341C297 114.387 296.616 114.088 296.189 113.832C295.848 113.491 295.506 113.149 295.165 112.808H286.589L284.925 110.888H287.997C287.741 110.547 287.485 110.248 287.229 109.992C287.058 109.651 286.888 109.309 286.717 108.968H282.493L281.725 107.688H277.117C277.032 107.517 276.946 107.304 276.861 107.048C276.776 106.792 276.648 106.579 276.477 106.408H279.677L278.909 104.488H281.469L281.085 103.208C280.914 102.696 280.829 102.269 280.829 101.928H290.941C290.856 101.587 290.77 101.288 290.685 101.032C290.685 100.691 290.685 100.349 290.685 100.008H276.093C276.093 99.8373 276.05 99.7093 275.965 99.624C275.965 99.5387 275.965 99.4533 275.965 99.368H275.581C275.581 99.0267 275.538 98.728 275.453 98.472C275.453 98.1307 275.453 97.7893 275.453 97.448H275.069C275.069 97.1067 275.026 96.808 274.941 96.552C274.941 96.2107 274.941 95.8693 274.941 95.528H276.733V94.888H275.581V93.608H274.557V91.048H276.093V88.488H274.557V86.568H275.709V85.288H275.837V83.368H276.477V78.888H276.733V76.968H277.373V76.84H267.261C265.981 76.84 264.957 76.2427 264.189 75.048H266.109C265.853 74.536 265.725 73.9813 265.725 73.384V72.488H261.629V70.568H262.525V68.008H261.885V66.728H262.141V65.448H264.061V64.808H260.861V62.888H264.701V60.968H263.933V59.688H263.037V57.768H262.269V57.128H261.885C262.141 55.848 262.952 54.9947 264.317 54.568H265.085C265.341 54.4827 265.682 54.44 266.109 54.44H276.221V53.928H276.733V52.008H275.709V50.728H275.581V48.808H275.069V48.168H271.997V46.888H269.053V46.248H270.077V45.608H273.021V43.048H274.173V41.768H270.077V40.488H276.349V38.568H275.709V37.928H274.301V36.648H275.581V36.008H274.301V34.088H275.453V33.576C275.453 33.1493 275.538 32.68 275.709 32.168H277.373C277.97 30.8027 279.037 30.12 280.573 30.12H302.973C304.338 30.12 305.405 30.8027 306.173 32.168H304.509C304.68 32.68 304.765 33.1493 304.765 33.576V34.088H303.613V36.008H304.893V36.648H303.613V37.928H305.021V38.568H305.661V40.488H299.389V41.768H303.485V43.048H302.333V45.608H299.389V46.248H298.365V46.888H301.309V48.168H304.381V48.808H304.893V50.728H305.021V52.008H306.045V53.928H305.533V54.44H321.661C322.088 54.44 322.386 54.4827 322.557 54.568H321.789C322.984 54.9947 323.794 55.848 324.221 57.128H324.605C324.605 57.2133 324.605 57.2987 324.605 57.384C324.69 57.4693 324.733 57.5973 324.733 57.768H325.501V59.688H326.397V60.968H327.165V62.888H323.325V64.808H326.525V65.448H324.605V66.728H324.349V68.008H324.989V70.568H324.093V72.488H328.189V73.384C328.189 73.7253 328.146 74.024 328.061 74.28C327.976 74.536 327.848 74.792 327.677 75.048H325.885C325.117 76.2427 324.093 76.84 322.813 76.84H306.685V76.968H306.045V78.888H305.789V83.368H305.149V85.288H305.021V86.568H303.869V88.488H305.405V91.048H303.869C303.869 91.4747 303.869 91.9013 303.869 92.328C303.954 92.7547 304.04 93.1813 304.125 93.608H305.277C305.448 94.12 305.618 94.5467 305.789 94.888H306.813L307.197 95.528H305.405C306.344 96.7227 307.794 97.32 309.757 97.32H321.405C321.832 97.32 322.13 97.3627 322.301 97.448H322.685C323.709 97.704 324.434 98.344 324.861 99.368H325.245C325.245 99.4533 325.245 99.5387 325.245 99.624C325.33 99.7093 325.373 99.8373 325.373 100.008H339.965C339.965 100.093 339.965 100.221 339.965 100.392C340.05 100.477 340.093 100.605 340.093 100.776V101.928H329.853V104.488H327.293V106.408ZM417.69 84.008C417.775 84.4347 417.818 84.8613 417.818 85.288C417.818 85.7147 417.818 86.1413 417.818 86.568H408.73V87.848H403.482V89.128H408.474V89.768H402.714V91.688H399.514V92.328H406.682C406.682 92.584 406.639 92.7973 406.554 92.968H406.17V93.608H407.322V93.736C407.322 94.0773 407.279 94.4613 407.194 94.888C407.194 95.3147 407.151 95.7413 407.066 96.168H406.17L405.786 98.728H407.706C407.706 99.0693 407.621 99.496 407.45 100.008H407.066C406.981 100.349 406.895 100.691 406.81 101.032C406.725 101.288 406.639 101.587 406.554 101.928H407.578C407.493 102.355 407.365 102.781 407.194 103.208C407.023 103.635 406.853 104.061 406.682 104.488H404.762L404.25 105.768H404.506C404.335 106.109 404.25 106.323 404.25 106.408H403.738C403.397 107.261 402.927 108.115 402.33 108.968H402.586C402.501 109.139 402.373 109.352 402.202 109.608C402.031 109.864 401.861 110.077 401.69 110.248H401.562L400.026 112.168C399.941 112.253 399.855 112.339 399.77 112.424C399.685 112.509 399.557 112.637 399.386 112.808H398.746C398.405 113.149 398.063 113.491 397.722 113.832C397.381 114.088 396.997 114.387 396.57 114.728H392.73L390.042 116.648H390.554C390.383 116.733 390.213 116.819 390.042 116.904C389.871 116.989 389.701 117.117 389.53 117.288H388.634C388.463 117.373 388.25 117.459 387.994 117.544C387.738 117.629 387.525 117.757 387.354 117.928H394.266C393.839 118.184 393.37 118.44 392.858 118.696C392.346 118.867 391.834 119.037 391.322 119.208H389.146C388.549 119.464 387.909 119.72 387.226 119.976C386.543 120.147 385.861 120.317 385.178 120.488H385.69C384.666 120.744 383.599 120.957 382.49 121.128C381.381 121.384 380.229 121.597 379.034 121.768H383.002C381.637 121.939 380.229 122.067 378.778 122.152C377.327 122.237 375.834 122.28 374.298 122.28C372.677 122.28 371.141 122.237 369.69 122.152C368.325 122.067 366.917 121.939 365.466 121.768H361.37C360.261 121.597 359.109 121.384 357.914 121.128C356.805 120.957 355.738 120.744 354.714 120.488H354.33C353.647 120.317 352.965 120.147 352.282 119.976C351.685 119.72 351.045 119.464 350.362 119.208H352.41C351.983 119.037 351.514 118.867 351.002 118.696C350.49 118.44 350.021 118.184 349.594 117.928H342.682L341.53 117.288H342.426L341.274 116.648H340.762C339.738 115.965 338.842 115.325 338.074 114.728H341.914C341.573 114.387 341.231 114.088 340.89 113.832C340.549 113.491 340.207 113.149 339.866 112.808H340.506C340.421 112.637 340.335 112.509 340.25 112.424C340.165 112.339 340.037 112.253 339.866 112.168L338.33 110.248H338.458L337.562 108.968H337.306C336.709 108.115 336.239 107.261 335.898 106.408H336.282C336.111 106.067 336.026 105.853 336.026 105.768H335.642L335.13 104.488H337.05C336.965 104.061 336.837 103.635 336.666 103.208C336.495 102.781 336.325 102.355 336.154 101.928H335.13C335.045 101.587 334.959 101.288 334.874 101.032C334.789 100.691 334.703 100.349 334.618 100.008H333.85L333.466 98.728H332.186L331.802 96.168H333.082C332.997 95.7413 332.911 95.3147 332.826 94.888C332.826 94.4613 332.826 94.0773 332.826 93.736V93.608H330.522V92.968H329.882C329.882 92.7973 329.839 92.6693 329.754 92.584C329.754 92.4987 329.754 92.4133 329.754 92.328H336.922C336.922 92.072 336.879 91.8587 336.794 91.688H329.626V89.768H332.698V89.128H334.234V87.848H336.922V86.568H329.114C329.114 86.1413 329.114 85.7147 329.114 85.288C329.114 84.8613 329.157 84.4347 329.242 84.008H327.578V82.728H340.25C340.335 82.472 340.378 82.1307 340.378 81.704V80.808H336.922C336.922 80.4667 336.922 80.168 336.922 79.912C337.007 79.5707 337.05 79.2293 337.05 78.888H338.33L338.714 76.328H334.49C334.575 75.9867 334.661 75.688 334.746 75.432C334.831 75.0907 334.917 74.7493 335.002 74.408H334.106C334.277 73.9813 334.405 73.5547 334.49 73.128C334.661 72.616 334.831 72.1893 335.002 71.848H335.13C335.215 71.6773 335.301 71.464 335.386 71.208C335.471 70.952 335.557 70.7387 335.642 70.568H335.514C335.514 70.4827 335.599 70.2693 335.77 69.928H336.41C336.751 69.0747 337.221 68.2213 337.818 67.368H335.258L336.026 66.088H340.762C340.847 65.9173 341.018 65.704 341.274 65.448H331.93C332.101 65.1067 332.314 64.808 332.57 64.552C332.911 64.2107 333.21 63.8693 333.466 63.528H336.41C336.837 63.1013 337.263 62.6747 337.69 62.248C338.202 61.736 338.671 61.3093 339.098 60.968H344.986C345.754 60.2853 346.65 59.6453 347.674 59.048H350.106C350.447 58.792 350.789 58.5787 351.13 58.408C351.557 58.152 351.941 57.9387 352.282 57.768H344.73C345.498 57.3413 346.437 56.9147 347.546 56.488H351.002C352.965 55.72 355.013 55.08 357.146 54.568H353.306C357.487 53.6293 361.925 53.16 366.618 53.16C371.311 53.16 375.749 53.6293 379.93 54.568H383.898C386.031 55.08 388.037 55.72 389.914 56.488H386.33C387.439 56.9147 388.378 57.3413 389.146 57.768H396.698C397.125 57.9387 397.509 58.152 397.85 58.408C398.277 58.5787 398.661 58.792 399.002 59.048H396.57L399.258 60.968H393.37C393.882 61.3093 394.351 61.736 394.778 62.248C395.29 62.6747 395.759 63.1013 396.186 63.528H393.242C393.498 63.8693 393.754 64.2107 394.01 64.552C394.351 64.808 394.607 65.1067 394.778 65.448H404.25L404.634 66.088H400.026L400.794 67.368H403.354C403.951 68.2213 404.421 69.0747 404.762 69.928H404.122C404.293 70.2693 404.378 70.4827 404.378 70.568H404.634L405.146 71.848H405.018C405.189 72.1893 405.359 72.616 405.53 73.128C405.701 73.5547 405.829 73.9813 405.914 74.408H407.194L407.578 76.328H406.81C406.981 76.6693 407.066 77.096 407.066 77.608C407.151 78.0347 407.237 78.4613 407.322 78.888H408.346C408.431 79.2293 408.474 79.5707 408.474 79.912C408.474 80.168 408.517 80.4667 408.602 80.808H403.61V81.704C403.61 82.1307 403.653 82.472 403.738 82.728H401.178V84.008H417.69ZM368.538 78.888C368.453 79.2293 368.367 79.5707 368.282 79.912C368.282 80.168 368.282 80.4667 368.282 80.808H371.866C371.781 81.064 371.738 81.32 371.738 81.576C371.738 81.832 371.738 82.088 371.738 82.344V82.728H372.25V82.344C372.25 82.088 372.207 81.832 372.122 81.576C372.122 81.32 372.122 81.064 372.122 80.808H377.114C377.114 80.4667 377.071 80.168 376.986 79.912C376.986 79.5707 376.986 79.2293 376.986 78.888H375.962C375.877 78.376 375.749 77.9067 375.578 77.48C375.493 77.0533 375.365 76.6693 375.194 76.328H376.09C375.749 75.56 375.237 74.92 374.554 74.408H373.274C372.421 73.896 371.311 73.64 369.946 73.64C368.581 73.64 367.514 73.896 366.746 74.408H367.642C367.301 74.664 367.002 74.9627 366.746 75.304C366.49 75.56 366.277 75.9013 366.106 76.328H370.33C370.245 76.6693 370.117 77.0533 369.946 77.48C369.861 77.9067 369.775 78.376 369.69 78.888H368.538ZM377.242 86.568H386.33V84.008H369.818C369.733 83.6667 369.69 83.24 369.69 82.728H359.066C359.066 83.24 359.023 83.6667 358.938 84.008H360.602V86.568H368.41V87.848H365.594V89.128H364.058V89.768H360.986C360.986 90.1093 360.986 90.4507 360.986 90.792C361.071 91.048 361.114 91.3467 361.114 91.688H371.226V89.768H376.986V89.128H371.994V87.848H377.242V86.568ZM375.194 92.968V92.328H361.242V92.968H361.882V93.096C361.882 93.1813 361.882 93.2667 361.882 93.352C361.967 93.4373 362.01 93.5227 362.01 93.608H364.186C364.271 94.0347 364.314 94.4613 364.314 94.888C364.314 95.3147 364.357 95.7413 364.442 96.168H363.162C363.333 97.2773 363.503 98.1307 363.674 98.728H365.082C365.253 99.24 365.423 99.6667 365.594 100.008H366.49C367.258 101.203 368.709 101.8 370.842 101.8C372.975 101.8 374.426 101.203 375.194 100.008H375.706C375.791 99.8373 375.877 99.6667 375.962 99.496C376.047 99.24 376.133 98.984 376.218 98.728H374.298C374.383 98.3013 374.469 97.9173 374.554 97.576C374.639 97.1493 374.725 96.68 374.81 96.168H375.706C375.791 95.7413 375.834 95.3147 375.834 94.888C375.834 94.4613 375.877 94.0347 375.962 93.608H374.81V92.968H375.194ZM474.215 64.168H479.079V66.728H478.823V69.288H474.343V71.208H475.495V73.768H474.471V76.328H472.167V76.968H464.103V77.864C464.103 78.0347 464.06 78.2053 463.975 78.376C463.975 78.5467 463.932 78.7173 463.847 78.888H466.791C466.364 80.5093 465.255 81.32 463.463 81.32H446.951C446.61 81.32 446.268 81.32 445.927 81.32C445.671 81.32 445.415 81.3627 445.159 81.448H450.279C449.852 81.5333 449.468 81.6187 449.127 81.704C448.786 81.7893 448.402 81.9173 447.975 82.088H452.199C451.943 82.1733 451.559 82.3867 451.047 82.728H453.479L452.711 83.368H453.351C452.839 83.88 452.455 84.52 452.199 85.288H448.359C448.188 85.6293 448.103 85.8427 448.103 85.928H446.823C446.823 86.0133 446.78 86.0987 446.695 86.184C446.695 86.2693 446.695 86.3973 446.695 86.568H448.231C448.146 86.7387 448.103 86.952 448.103 87.208C448.103 87.3787 448.06 87.592 447.975 87.848H448.743V89.768H446.951V91.048H448.743V92.968H450.663V95.528H447.847V96.168H445.799V96.808H453.479V98.728H449.639V100.008H450.919V101.288H447.975V103.848H446.311V104.488H444.647V106.408H448.999V108.328H446.695V110.248H448.999V110.888H448.743V112.168H445.927V113.448H447.975V116.008H448.487V117.928H447.975C447.804 119.123 447.25 119.976 446.311 120.488H445.159C444.732 120.829 444.135 121 443.367 121H419.047C418.279 121 417.682 120.829 417.255 120.488H418.407C417.468 119.976 416.914 119.123 416.743 117.928H417.255V116.008H416.743V113.448H414.695V112.168H417.511V110.888H417.767V110.248H415.463V108.328H417.767V106.408H413.415V104.488H415.079V103.848H416.743V101.288H419.687V100.008H418.407V98.728H422.247V96.808H414.567V96.168H416.615V95.528H419.431V92.968H417.511V91.048H415.719V89.768H417.511V87.848H416.743V86.568H415.207V85.928H416.487V85.288H420.327V83.368H419.687V82.728H417.383V82.088H413.159V81.448H408.039V78.888H405.223V76.968H413.287V76.328H415.591V73.768H416.615V71.208H415.463V69.288H419.943V66.728H420.199V64.168H415.335V62.248H419.431V59.688H415.463V59.048H416.743V57.896C416.743 57.4693 416.828 57 416.999 56.488H416.871C417.468 55.1227 418.535 54.44 420.071 54.44H442.471C443.922 54.44 444.946 55.1227 445.543 56.488H445.799C445.97 57 446.055 57.4693 446.055 57.896V59.048H444.775V59.688H448.743V60.072L449.255 59.688H449.511C449.682 59.5173 449.852 59.3893 450.023 59.304C450.194 59.2187 450.322 59.1333 450.407 59.048H450.663C452.37 57.9387 454.034 57.0853 455.655 56.488H455.911C457.618 55.8053 459.324 55.2933 461.031 54.952C462.738 54.6107 464.53 54.44 466.407 54.44H472.551C474.087 54.44 475.154 55.1227 475.751 56.488H475.495C475.666 57 475.751 57.4693 475.751 57.896V59.048H475.623V59.688H475.367V62.248H474.215V64.168ZM560.561 59.688H550.193L549.937 60.328H560.689L559.537 62.888H554.545L553.521 65.448H556.209L555.185 68.008H550.961L550.449 69.288H553.649L553.137 70.568H552.369L552.113 71.208H551.985L551.089 73.128H552.369L551.601 75.048H542.513L541.873 76.328H548.913L548.657 76.968H537.137L536.625 78.248H535.601L534.449 80.808H551.345L551.089 81.448H548.145L547.505 82.728H548.401L548.145 83.368H547.377L546.225 85.928L545.457 87.848H543.921L543.025 89.768H544.049L543.153 91.688H543.537L543.281 92.328H543.153L542.641 93.608H543.281L542.769 94.888H542.129L541.617 96.168H541.489L540.721 98.088H541.489L541.233 98.728H540.465L539.569 100.648H534.833L533.681 103.208H536.753L536.241 104.488H539.953L538.929 107.048H534.705L534.193 108.328H536.241L535.217 110.888H534.577L533.425 113.448H534.321L533.809 114.728H533.553L532.913 116.008H532.657L531.761 117.928H532.145L531.249 119.848H530.225L529.329 121.768H527.537L526.897 123.048H536.241L535.217 125.608H525.745L524.593 128.168H529.841L528.689 130.728H533.937L532.785 133.288H533.041L532.017 135.848H515.889L515.249 137.128H518.961L518.449 138.408H524.081L523.441 139.688H510.641L510.001 140.968H516.657L516.145 142.248C515.718 143.357 514.993 144.211 513.969 144.808H508.593C507.91 145.149 507.185 145.32 506.417 145.32H485.425C484.657 145.32 484.102 145.149 483.761 144.808H489.009C488.241 144.211 487.857 143.485 487.857 142.632V142.248C487.857 141.907 487.9 141.608 487.985 141.352L488.113 140.968H481.457L482.097 139.688H494.897L495.409 138.408H489.777L490.289 137.128H486.705L487.217 135.848H503.345L504.497 133.288H504.241L505.265 130.728H500.017L501.041 128.168H495.921L496.945 125.608H506.417L507.441 123.048H498.097L498.609 121.768H500.529L501.297 119.848H502.449L503.217 117.928H502.961L503.473 116.776L503.089 116.008H503.345L502.833 114.728H503.217L502.577 113.448H501.681L500.657 110.888H501.297L500.145 108.328H498.097L497.457 107.048H501.681L500.657 104.488H496.817L496.305 103.208H493.233L492.209 100.648H496.945L496.177 98.728H496.945L496.689 98.088H495.793L495.025 96.168H495.153L494.641 94.888H495.153L494.641 93.608H493.873L493.361 92.328H493.489L493.233 91.688H492.849L492.081 89.768H491.185L490.289 87.848H491.825L491.057 85.928H489.265L488.241 83.368H489.649L489.265 82.728H491.313L490.673 81.448H487.473L487.089 80.808H486.961L485.809 78.248H469.809L469.169 76.968H478.769L478.513 76.328H479.025L478.385 75.048H484.785L483.889 73.128H485.041L484.273 71.208H484.529L484.273 70.568H484.145L483.633 69.288H483.249L482.609 68.008H483.889L482.865 65.448H479.409L478.257 62.888H480.945L479.921 60.328H473.009L472.753 59.688H482.865L482.353 58.408C482.268 58.152 482.225 57.8533 482.225 57.512C482.225 57.3413 482.268 57.2133 482.353 57.128H484.145C484.572 55.336 485.596 54.44 487.217 54.44H508.849C510.044 54.44 510.94 54.7387 511.537 55.336C512.134 55.848 512.561 56.4453 512.817 57.128H511.025C511.025 57.2133 511.025 57.2987 511.025 57.384C511.11 57.384 511.153 57.4267 511.153 57.512L511.537 58.408L511.921 59.688H501.681L501.937 60.328H508.849L509.873 62.888H507.185L508.081 65.448H511.537L512.433 68.008H511.153L511.665 69.288H512.049L512.817 71.208H512.561L513.201 73.128H512.177L512.817 75.048H506.545L506.929 76.328H506.417L506.673 76.968H497.201L497.585 78.248H508.849L509.361 76.968H520.881L521.137 76.328H514.097L514.609 75.048H523.569L524.337 73.128H523.057L523.825 71.208H523.953L524.209 70.568H524.977L525.361 69.288H522.161L522.673 68.008H526.769L527.793 65.448H524.977L526.001 62.888H530.993L531.889 60.328H521.137L521.393 59.688H531.761L532.273 58.408L532.529 57.512C532.614 57.4267 532.657 57.2987 532.657 57.128H528.433C528.86 56.4453 529.372 55.848 529.969 55.336C530.652 54.7387 531.548 54.44 532.657 54.44H554.033C554.801 54.44 555.484 54.7387 556.081 55.336C556.678 55.848 556.977 56.4453 556.977 57.128H561.201C561.201 57.64 561.158 58.0667 561.073 58.408L560.561 59.688ZM523.569 81.448L523.697 80.808H514.865L515.121 81.448H518.321L518.833 82.728H516.913L517.169 83.368H515.761L516.657 85.928H518.449L518.705 86.696L518.961 85.928L519.857 83.368H520.753L521.009 82.728H520.113L520.497 81.448H523.569Z" fill="#75E8F0"/>
<path d="M132.016 91.048V91.688H142V92.968H141.488V94.888H114.992V95.528H119.6V97.448H133.68V98.728H126.384V101.288H126V101.928H117.552V103.848H130.096V104.488H130.608V106.408H131.888V108.968H107.184V110.888H133.296V112.168H124.592V114.088H123.44V115.368H126.384V116.648H124.464V117.928H128.944L128.56 119.208H134.576C134.405 119.464 134.192 119.72 133.936 119.976C133.765 120.147 133.552 120.317 133.296 120.488H136.24C135.813 120.829 135.216 121 134.448 121H109.36C108.592 121 107.995 120.829 107.568 120.488H104.624C104.027 120.232 103.6 119.805 103.344 119.208H97.3279L96.9439 117.928H92.4639V116.648H94.3839V115.368H91.4399V114.088H92.5919V112.168H101.296V110.888H78.1279V112.168H67.5039V114.088H74.7999V115.368H73.0079V116.648H79.6639V117.928H72.4959L72.1119 119.208H74.9279C74.5866 119.805 74.2026 120.232 73.7759 120.488H70.7039C70.2772 120.829 69.6799 121 68.9119 121H43.8239C42.9706 121 42.3306 120.829 41.9039 120.488H44.9759C44.5492 120.232 44.1652 119.805 43.8239 119.208H40.8799C40.6239 118.781 40.4959 118.355 40.4959 117.928H47.6639V116.648H41.0079V115.368H42.7999V114.088H35.5039V112.168H46.1279V110.888H52.2719V108.968H32.5599V106.408H39.8559V104.488H44.9759V103.848H41.3919V101.928H35.3759V101.288H36.6559V98.728H40.7519V97.448H42.6719V95.528H33.4559V94.888H57.1359V92.968H28.2079V91.688H55.4719V91.048H42.1599V89.128H49.8399V88.488H51.3759V87.848H50.7359V85.288H38.0639V83.368H42.2879V82.728H41.1359V80.808H41.6479V80.168H41.7759V78.888H41.9039V78.248H40.2399V77.608H35.2479V75.688H36.9119V73.768H34.3519V71.848H40.7519V69.288H39.3439V68.008H29.9999V67.368H44.9759V66.088H48.5599V65.448H13.9999V64.808H34.3519V64.168H41.6479V62.248H28.5919V59.688H25.0079V57.768H40.3679V55.208H41.6479V53.288H49.8399V52.648H42.7999V50.088H48.5599V48.808H41.6479V48.168H39.2159V46.888H35.5039V45.608H31.0239V43.048H39.0879V41.128H43.9519V39.208H41.6479V37.928H38.4479V37.288H40.2399V36.008H39.8559V34.856C39.8559 34.2587 39.9839 33.7893 40.2399 33.448H48.4319C48.5172 33.192 48.6452 32.9787 48.8159 32.808C48.9866 32.552 49.1572 32.3387 49.3279 32.168H69.0399C69.5519 31.656 70.2772 31.4 71.2159 31.4H120.368C121.221 31.4 121.947 31.656 122.544 32.168H142.256C142.427 32.3387 142.597 32.552 142.768 32.808C143.024 32.9787 143.195 33.192 143.28 33.448H126.768C126.939 33.96 127.024 34.4293 127.024 34.856V36.008H127.664V37.288H129.456V37.928H126V39.208H124.464V41.128H129.456V43.048H117.424V45.608H131.248V46.888H121.264V48.168H125.36V48.808H123.312V50.088H132.912V52.648H118.832V53.288H129.712V55.208H127.792V57.768H117.552V59.688H113.328V62.248H126.384V64.168H119.088V64.808H98.7359V65.448H133.296V66.088H129.712V67.368H114.736V68.008H124.08V69.288H125.488V71.848H119.088V73.768H121.648V75.688H119.984V77.608H124.976V78.248H126.64V78.888H126.512V80.168H126.384V80.808H125.872V82.728H127.024V83.368H122.8V85.288H135.472V87.848H136.112V88.488H134.576V89.128H126.896V91.048H132.016ZM57.0079 57.768V59.688H60.5919V61.736H81.3279V59.688H85.5519V57.768H95.7919V55.208H97.7119V53.288H86.8319V52.648H100.912V50.088H91.3119V48.808H93.3599V48.168H89.2639V46.888H99.2479V45.608H85.4239V43.048H97.4559V41.128H92.4639V39.208H93.9999V37.928H97.4559V37.288H95.6639V36.008H95.0239V34.856C95.0239 34.4293 95.1092 33.96 95.2799 33.448H111.792C111.963 33.192 112.133 32.9787 112.304 32.808C112.475 32.552 112.645 32.3387 112.816 32.168H78.7679C79.1946 32.5093 79.5359 32.936 79.7919 33.448H71.5999C71.7706 33.704 71.8559 34.1733 71.8559 34.856V36.008H72.2399V37.288H70.4479V37.928H73.6479V39.208H75.9519V41.128H71.0879V43.048H63.0239V45.608H67.5039V46.888H71.2159V48.168H73.6479V48.808H80.5599V50.088H74.7999V52.648H81.8399V53.288H73.6479V55.208H72.3679V57.768H57.0079ZM110 92.968V91.688H100.016V91.048H94.8959V89.896H74.1599V91.048H87.4719V91.688H60.2079V92.968H89.1359V94.888H109.488V92.968H110ZM101.68 97.448H87.5999V95.528H82.9919V94.888H65.4559V95.528H74.6719V97.448H72.7519V98.728H68.6559V101.288H67.3759V101.928H73.3919V103.848H76.9759V104.488H71.8559V106.408H64.5599V108.968H99.8879V106.408H98.6079V104.488H98.0959V103.848H85.5519V101.928H93.9999V101.288H94.3839V98.728H101.68V97.448ZM138.603 43.688V41.128H138.475V39.208H139.627V38.568H140.395V36.008H139.755V34.088H139.883V31.528H140.395V29.608H140.139V28.456C140.139 27.7733 140.224 27.304 140.395 27.048H141.675L142.059 26.408H141.035C141.718 25.4693 142.656 25 143.851 25H165.483C166.678 25 167.616 25.4693 168.299 26.408H169.323L169.707 27.048H168.299C168.555 27.3893 168.683 27.8587 168.683 28.456V29.608H168.939V31.528H168.427V34.088H168.299V36.008H168.939V38.568H168.171V39.208H167.019V41.128H167.147V43.688H168.043V43.944C168.043 44.712 167.744 45.48 167.147 46.248H165.611C165.014 47.016 164.16 47.4 163.051 47.4H141.419C140.31 47.4 139.414 47.016 138.731 46.248H140.267C139.755 45.5653 139.499 44.7973 139.499 43.944V43.688H138.603ZM164.971 70.568H177.003V73.128H172.651V74.408H167.787V76.968H171.499V77.608H169.067V78.888H169.451V80.168H170.091V82.088H163.691V84.008H167.915V85.928H167.147V87.208H169.323V89.128H169.835V91.048H169.067V92.968H169.707V94.248H169.067V96.808H168.811V98.728H168.299V100.648H168.811V101.928H169.067V104.488H168.555V105.768H169.195V107.048H169.067V108.968H169.579V110.888H169.963V111.528H169.067V114.088H167.275V116.648H168.555V117.544C168.555 117.971 168.512 118.312 168.427 118.568H167.531C167.275 119.421 166.806 120.061 166.123 120.488H168.683C168.256 120.829 167.616 121 166.763 121H143.851C143.083 121 142.486 120.829 142.059 120.488H139.499C138.731 120.061 138.219 119.421 137.963 118.568H138.859C138.774 118.312 138.731 117.971 138.731 117.544V116.648H137.451V114.088H139.243V111.528H140.139V110.888H139.755V108.968H139.243V107.048H139.371V105.768H138.731V104.488H139.243V101.928H138.987V100.648H138.475V98.728H138.987V96.808H139.243V94.248H139.883V92.968H139.243V91.048H140.011V89.128H139.499V87.208H137.323V85.928H138.091V84.008H133.867V82.088H140.267V80.168H139.627V78.888H139.243V77.608H141.675V76.968H137.963V74.408H142.827V73.128H147.179V70.568H135.147V69.288H145.771V66.728H141.931V64.808H144.235V62.248H140.139V61.608H139.243V60.328H138.475V58.408H139.371V57.896C139.371 56.9573 139.584 56.2747 140.011 55.848H140.139C140.822 54.9093 141.76 54.44 142.955 54.44H165.867C167.062 54.44 168 54.9093 168.683 55.848H168.427C168.939 56.36 169.195 57.0427 169.195 57.896V58.408H168.299V60.328H169.067V61.608H169.963V62.248H174.059V64.808H171.755V66.728H175.595V69.288H164.971V70.568ZM258.093 109.608H252.845C252.333 110.461 251.736 111.315 251.053 112.168H253.357C253.272 112.339 253.101 112.552 252.845 112.808H247.213C246.872 113.149 246.53 113.491 246.189 113.832C245.933 114.088 245.592 114.387 245.165 114.728H245.037C244.61 115.069 244.141 115.411 243.629 115.752C243.202 116.008 242.733 116.307 242.221 116.648H239.917C239.149 117.16 238.296 117.629 237.357 118.056C236.418 118.397 235.48 118.781 234.541 119.208H234.029C233.773 119.293 233.474 119.379 233.133 119.464C232.877 119.549 232.536 119.677 232.109 119.848H246.701C246.36 119.933 245.976 120.019 245.549 120.104C245.208 120.189 244.824 120.317 244.397 120.488H237.997C236.888 120.744 235.736 120.957 234.541 121.128C233.346 121.384 232.109 121.597 230.829 121.768H226.989C225.624 121.939 224.173 122.067 222.637 122.152C221.101 122.237 219.48 122.28 217.773 122.28C216.152 122.28 214.616 122.237 213.165 122.152C211.8 122.067 210.477 121.939 209.197 121.768H212.909C211.714 121.597 210.562 121.384 209.453 121.128C208.344 120.957 207.277 120.744 206.253 120.488H212.653L210.477 119.848H195.885C195.629 119.677 195.33 119.549 194.989 119.464C194.733 119.379 194.434 119.293 194.093 119.208H194.477C193.538 118.781 192.6 118.355 191.661 117.928C190.808 117.501 189.954 117.075 189.101 116.648H191.405C190.893 116.307 190.381 116.008 189.869 115.752C189.442 115.411 189.016 115.069 188.589 114.728H188.845C188.418 114.387 188.034 114.088 187.693 113.832C187.352 113.491 187.01 113.149 186.669 112.808H192.173C192.088 112.637 192.002 112.509 191.917 112.424C191.832 112.339 191.746 112.253 191.661 112.168H189.229C188.888 111.741 188.546 111.315 188.205 110.888C187.864 110.461 187.522 110.035 187.181 109.608H192.557C192.216 109.181 191.96 108.755 191.789 108.328C191.618 107.816 191.448 107.389 191.277 107.048H188.845C188.674 106.707 188.589 106.493 188.589 106.408H184.621L184.237 105.128H181.293C181.208 104.872 181.165 104.488 181.165 103.976C181.165 103.293 181.208 102.824 181.293 102.568H182.189C182.616 101.544 183.298 100.904 184.237 100.648H183.981C184.152 100.563 184.45 100.52 184.877 100.52H207.661C207.746 100.52 207.832 100.563 207.917 100.648C208.088 100.648 208.216 100.648 208.301 100.648H208.557C209.24 100.819 209.837 101.075 210.349 101.416C210.946 101.757 211.544 102.141 212.141 102.568H211.373C212.056 102.995 212.781 103.421 213.549 103.848C214.317 104.189 215.213 104.36 216.237 104.36C216.92 104.36 217.56 104.232 218.157 103.976C218.754 103.635 219.096 103.165 219.181 102.568H219.565V102.44C219.565 101.672 219.394 101.075 219.053 100.648C218.712 100.136 218.157 99.7093 217.389 99.368H215.853C215 98.9413 213.848 98.5147 212.397 98.088C211.032 97.6613 209.112 97.2347 206.637 96.808H207.789L205.741 96.424C205.058 96.2533 204.376 96.1253 203.693 96.04C203.01 95.8693 202.328 95.6987 201.645 95.528H202.157L199.981 94.888H200.237C199.128 94.5467 198.061 94.1627 197.037 93.736C196.013 93.3093 195.032 92.84 194.093 92.328H194.605L191.533 90.408H191.277C190.68 89.9813 190.125 89.5547 189.613 89.128C189.186 88.7013 188.76 88.2747 188.333 87.848H185.645C185.56 87.6773 185.474 87.5493 185.389 87.464C185.304 87.3787 185.218 87.2933 185.133 87.208H186.285C186.029 86.952 185.858 86.7387 185.773 86.568H182.189L180.781 84.648H186.285L185.517 83.368H183.725C183.298 82.4293 182.957 81.576 182.701 80.808H183.469C183.469 80.6373 183.426 80.5093 183.341 80.424C183.341 80.3387 183.341 80.2533 183.341 80.168H189.357C189.357 79.8267 189.272 79.4 189.101 78.888H177.837C177.837 78.5467 177.837 78.248 177.837 77.992C177.752 77.6507 177.666 77.3093 177.581 76.968H177.709L177.581 75.688H186.157C186.072 75.5173 186.029 75.304 186.029 75.048C186.029 74.7067 186.029 74.408 186.029 74.152C186.114 73.8107 186.157 73.4693 186.157 73.128H180.141L180.269 71.848H186.029L186.413 70.568H183.853C183.938 70.3973 184.024 70.184 184.109 69.928C184.194 69.672 184.28 69.4587 184.365 69.288H183.341C183.512 68.9467 183.682 68.648 183.853 68.392C184.024 68.0507 184.152 67.7093 184.237 67.368H184.749L185.517 66.088H185.389C185.56 65.7467 185.773 65.448 186.029 65.192C186.285 64.8507 186.541 64.5093 186.797 64.168C187.053 63.8267 187.309 63.528 187.565 63.272C187.821 62.9307 188.12 62.5893 188.461 62.248H188.205L188.845 61.608H188.717C188.802 61.4373 188.888 61.3093 188.973 61.224C189.144 61.1387 189.272 61.0533 189.357 60.968H189.613L191.149 59.688C191.32 59.5173 191.448 59.3893 191.533 59.304C191.704 59.2187 191.874 59.1333 192.045 59.048H189.613C191.064 58.1093 192.642 57.256 194.349 56.488H198.317C198.573 56.3173 198.829 56.1893 199.085 56.104C199.341 56.0187 199.64 55.9333 199.981 55.848H191.277C191.618 55.6773 191.917 55.5493 192.173 55.464C192.514 55.3787 192.856 55.2933 193.197 55.208H198.701C200.834 54.5253 203.096 54.0133 205.485 53.672C207.96 53.3307 210.562 53.16 213.293 53.16C216.109 53.16 218.754 53.3307 221.229 53.672C223.704 54.0133 226.008 54.5253 228.141 55.208H222.637C222.978 55.2933 223.277 55.3787 223.533 55.464C223.874 55.5493 224.216 55.6773 224.557 55.848H233.133L234.925 56.488H230.957C231.896 56.8293 232.792 57.256 233.645 57.768C234.498 58.1947 235.309 58.6213 236.077 59.048H238.509L239.533 59.688H239.661C240.002 59.8587 240.301 60.072 240.557 60.328C240.898 60.584 241.197 60.7973 241.453 60.968H241.325L242.093 61.608H242.221L242.989 62.248H243.245C244.013 62.8453 244.653 63.4853 245.165 64.168C245.848 64.7653 246.36 65.4053 246.701 66.088H246.829L247.597 67.368H246.957C247.128 67.7093 247.298 68.0507 247.469 68.392C247.64 68.648 247.768 68.9467 247.853 69.288H248.749L249.133 70.568H251.565L251.693 71.464V71.848H253.869C253.869 72.1893 253.784 72.616 253.613 73.128C253.016 74.3227 252.162 74.92 251.053 74.92H229.549C228.696 74.92 227.885 74.7493 227.117 74.408C226.434 73.9813 225.752 73.5547 225.069 73.128C224.472 72.7013 223.789 72.2747 223.021 71.848H220.845C219.992 71.336 219.053 71.08 218.029 71.08C217.176 71.08 216.493 71.336 215.981 71.848H210.349C209.922 72.2747 209.709 72.7013 209.709 73.128H215.725C215.725 73.5547 215.81 73.9813 215.981 74.408C216.152 74.8347 216.536 75.2613 217.133 75.688H208.685C209.112 75.8587 209.581 76.072 210.093 76.328C210.605 76.584 211.245 76.7973 212.013 76.968H211.885C212.909 77.3093 214.189 77.608 215.725 77.864C217.346 78.12 219.224 78.4187 221.357 78.76C221.528 78.76 221.656 78.8027 221.741 78.888C221.912 78.888 222.04 78.888 222.125 78.888H233.389C234.413 79.0587 235.394 79.272 236.333 79.528C237.357 79.6987 238.296 79.912 239.149 80.168H233.133C233.474 80.2533 233.773 80.3387 234.029 80.424C234.37 80.5093 234.712 80.6373 235.053 80.808H234.285C235.394 81.1493 236.376 81.5333 237.229 81.96C238.168 82.3867 239.064 82.856 239.917 83.368H241.837L243.885 84.648H238.381C238.808 84.9893 239.234 85.3307 239.661 85.672C240.088 85.928 240.472 86.2267 240.813 86.568H244.397L245.037 87.208H243.885L244.525 87.848H247.085C248.024 88.7867 248.706 89.64 249.133 90.408H249.389C249.645 90.7493 249.858 91.0907 250.029 91.432C250.2 91.688 250.37 91.9867 250.541 92.328H250.029C250.2 92.7547 250.37 93.1813 250.541 93.608C250.797 94.0347 250.968 94.4613 251.053 94.888H250.669L250.925 95.528H250.413C250.498 95.6987 250.541 95.912 250.541 96.168C250.541 96.424 250.584 96.6373 250.669 96.808H249.517C249.773 97.6613 249.901 98.5147 249.901 99.368H251.565V100.264C251.565 100.605 251.522 100.989 251.437 101.416C251.437 101.757 251.437 102.141 251.437 102.568H251.053C250.968 102.995 250.882 103.421 250.797 103.848C250.797 104.275 250.712 104.701 250.541 105.128H253.485C253.485 105.555 253.357 105.981 253.101 106.408H257.197C257.026 106.749 256.941 106.963 256.941 107.048H259.373C259.202 107.475 258.989 107.901 258.733 108.328C258.562 108.755 258.349 109.181 258.093 109.608ZM320.293 106.408H317.221V107.688H321.829V108.968H326.053V110.888H323.109V112.808H331.685V114.728H317.733V117.288H318.757V117.544C318.757 117.715 318.714 117.843 318.629 117.928C318.458 118.781 318.16 119.421 317.733 119.848H316.709C316.368 120.189 316.112 120.403 315.941 120.488H320.293C319.866 120.829 319.269 121 318.501 121H304.037C302.586 121 301.136 120.957 299.685 120.872C298.32 120.787 296.997 120.659 295.717 120.488H291.365C290.768 120.403 290.17 120.317 289.573 120.232C288.976 120.061 288.336 119.933 287.653 119.848H288.677C287.568 119.592 286.501 119.293 285.477 118.952C284.538 118.611 283.6 118.269 282.661 117.928H282.789C282.533 117.757 282.277 117.629 282.021 117.544C281.765 117.459 281.552 117.373 281.381 117.288H280.357C279.674 116.861 278.992 116.477 278.309 116.136C277.626 115.709 276.944 115.24 276.261 114.728H290.341C290 114.387 289.616 114.088 289.189 113.832C288.848 113.491 288.506 113.149 288.165 112.808H279.589L277.925 110.888H280.997C280.741 110.547 280.485 110.248 280.229 109.992C280.058 109.651 279.888 109.309 279.717 108.968H275.493L274.725 107.688H270.117C270.032 107.517 269.946 107.304 269.861 107.048C269.776 106.792 269.648 106.579 269.477 106.408H272.677L271.909 104.488H274.469L274.085 103.208C273.914 102.696 273.829 102.269 273.829 101.928H283.941C283.856 101.587 283.77 101.288 283.685 101.032C283.685 100.691 283.685 100.349 283.685 100.008H269.093C269.093 99.8373 269.05 99.7093 268.965 99.624C268.965 99.5387 268.965 99.4533 268.965 99.368H268.581C268.581 99.0267 268.538 98.728 268.453 98.472C268.453 98.1307 268.453 97.7893 268.453 97.448H268.069C268.069 97.1067 268.026 96.808 267.941 96.552C267.941 96.2107 267.941 95.8693 267.941 95.528H269.733V94.888H268.581V93.608H267.557V91.048H269.093V88.488H267.557V86.568H268.709V85.288H268.837V83.368H269.477V78.888H269.733V76.968H270.373V76.84H260.261C258.981 76.84 257.957 76.2427 257.189 75.048H259.109C258.853 74.536 258.725 73.9813 258.725 73.384V72.488H254.629V70.568H255.525V68.008H254.885V66.728H255.141V65.448H257.061V64.808H253.861V62.888H257.701V60.968H256.933V59.688H256.037V57.768H255.269V57.128H254.885C255.141 55.848 255.952 54.9947 257.317 54.568H258.085C258.341 54.4827 258.682 54.44 259.109 54.44H269.221V53.928H269.733V52.008H268.709V50.728H268.581V48.808H268.069V48.168H264.997V46.888H262.053V46.248H263.077V45.608H266.021V43.048H267.173V41.768H263.077V40.488H269.349V38.568H268.709V37.928H267.301V36.648H268.581V36.008H267.301V34.088H268.453V33.576C268.453 33.1493 268.538 32.68 268.709 32.168H270.373C270.97 30.8027 272.037 30.12 273.573 30.12H295.973C297.338 30.12 298.405 30.8027 299.173 32.168H297.509C297.68 32.68 297.765 33.1493 297.765 33.576V34.088H296.613V36.008H297.893V36.648H296.613V37.928H298.021V38.568H298.661V40.488H292.389V41.768H296.485V43.048H295.333V45.608H292.389V46.248H291.365V46.888H294.309V48.168H297.381V48.808H297.893V50.728H298.021V52.008H299.045V53.928H298.533V54.44H314.661C315.088 54.44 315.386 54.4827 315.557 54.568H314.789C315.984 54.9947 316.794 55.848 317.221 57.128H317.605C317.605 57.2133 317.605 57.2987 317.605 57.384C317.69 57.4693 317.733 57.5973 317.733 57.768H318.501V59.688H319.397V60.968H320.165V62.888H316.325V64.808H319.525V65.448H317.605V66.728H317.349V68.008H317.989V70.568H317.093V72.488H321.189V73.384C321.189 73.7253 321.146 74.024 321.061 74.28C320.976 74.536 320.848 74.792 320.677 75.048H318.885C318.117 76.2427 317.093 76.84 315.813 76.84H299.685V76.968H299.045V78.888H298.789V83.368H298.149V85.288H298.021V86.568H296.869V88.488H298.405V91.048H296.869C296.869 91.4747 296.869 91.9013 296.869 92.328C296.954 92.7547 297.04 93.1813 297.125 93.608H298.277C298.448 94.12 298.618 94.5467 298.789 94.888H299.813L300.197 95.528H298.405C299.344 96.7227 300.794 97.32 302.757 97.32H314.405C314.832 97.32 315.13 97.3627 315.301 97.448H315.685C316.709 97.704 317.434 98.344 317.861 99.368H318.245C318.245 99.4533 318.245 99.5387 318.245 99.624C318.33 99.7093 318.373 99.8373 318.373 100.008H332.965C332.965 100.093 332.965 100.221 332.965 100.392C333.05 100.477 333.093 100.605 333.093 100.776V101.928H322.853V104.488H320.293V106.408ZM410.69 84.008C410.775 84.4347 410.818 84.8613 410.818 85.288C410.818 85.7147 410.818 86.1413 410.818 86.568H401.73V87.848H396.482V89.128H401.474V89.768H395.714V91.688H392.514V92.328H399.682C399.682 92.584 399.639 92.7973 399.554 92.968H399.17V93.608H400.322V93.736C400.322 94.0773 400.279 94.4613 400.194 94.888C400.194 95.3147 400.151 95.7413 400.066 96.168H399.17L398.786 98.728H400.706C400.706 99.0693 400.621 99.496 400.45 100.008H400.066C399.981 100.349 399.895 100.691 399.81 101.032C399.725 101.288 399.639 101.587 399.554 101.928H400.578C400.493 102.355 400.365 102.781 400.194 103.208C400.023 103.635 399.853 104.061 399.682 104.488H397.762L397.25 105.768H397.506C397.335 106.109 397.25 106.323 397.25 106.408H396.738C396.397 107.261 395.927 108.115 395.33 108.968H395.586C395.501 109.139 395.373 109.352 395.202 109.608C395.031 109.864 394.861 110.077 394.69 110.248H394.562L393.026 112.168C392.941 112.253 392.855 112.339 392.77 112.424C392.685 112.509 392.557 112.637 392.386 112.808H391.746C391.405 113.149 391.063 113.491 390.722 113.832C390.381 114.088 389.997 114.387 389.57 114.728H385.73L383.042 116.648H383.554C383.383 116.733 383.213 116.819 383.042 116.904C382.871 116.989 382.701 117.117 382.53 117.288H381.634C381.463 117.373 381.25 117.459 380.994 117.544C380.738 117.629 380.525 117.757 380.354 117.928H387.266C386.839 118.184 386.37 118.44 385.858 118.696C385.346 118.867 384.834 119.037 384.322 119.208H382.146C381.549 119.464 380.909 119.72 380.226 119.976C379.543 120.147 378.861 120.317 378.178 120.488H378.69C377.666 120.744 376.599 120.957 375.49 121.128C374.381 121.384 373.229 121.597 372.034 121.768H376.002C374.637 121.939 373.229 122.067 371.778 122.152C370.327 122.237 368.834 122.28 367.298 122.28C365.677 122.28 364.141 122.237 362.69 122.152C361.325 122.067 359.917 121.939 358.466 121.768H354.37C353.261 121.597 352.109 121.384 350.914 121.128C349.805 120.957 348.738 120.744 347.714 120.488H347.33C346.647 120.317 345.965 120.147 345.282 119.976C344.685 119.72 344.045 119.464 343.362 119.208H345.41C344.983 119.037 344.514 118.867 344.002 118.696C343.49 118.44 343.021 118.184 342.594 117.928H335.682L334.53 117.288H335.426L334.274 116.648H333.762C332.738 115.965 331.842 115.325 331.074 114.728H334.914C334.573 114.387 334.231 114.088 333.89 113.832C333.549 113.491 333.207 113.149 332.866 112.808H333.506C333.421 112.637 333.335 112.509 333.25 112.424C333.165 112.339 333.037 112.253 332.866 112.168L331.33 110.248H331.458L330.562 108.968H330.306C329.709 108.115 329.239 107.261 328.898 106.408H329.282C329.111 106.067 329.026 105.853 329.026 105.768H328.642L328.13 104.488H330.05C329.965 104.061 329.837 103.635 329.666 103.208C329.495 102.781 329.325 102.355 329.154 101.928H328.13C328.045 101.587 327.959 101.288 327.874 101.032C327.789 100.691 327.703 100.349 327.618 100.008H326.85L326.466 98.728H325.186L324.802 96.168H326.082C325.997 95.7413 325.911 95.3147 325.826 94.888C325.826 94.4613 325.826 94.0773 325.826 93.736V93.608H323.522V92.968H322.882C322.882 92.7973 322.839 92.6693 322.754 92.584C322.754 92.4987 322.754 92.4133 322.754 92.328H329.922C329.922 92.072 329.879 91.8587 329.794 91.688H322.626V89.768H325.698V89.128H327.234V87.848H329.922V86.568H322.114C322.114 86.1413 322.114 85.7147 322.114 85.288C322.114 84.8613 322.157 84.4347 322.242 84.008H320.578V82.728H333.25C333.335 82.472 333.378 82.1307 333.378 81.704V80.808H329.922C329.922 80.4667 329.922 80.168 329.922 79.912C330.007 79.5707 330.05 79.2293 330.05 78.888H331.33L331.714 76.328H327.49C327.575 75.9867 327.661 75.688 327.746 75.432C327.831 75.0907 327.917 74.7493 328.002 74.408H327.106C327.277 73.9813 327.405 73.5547 327.49 73.128C327.661 72.616 327.831 72.1893 328.002 71.848H328.13C328.215 71.6773 328.301 71.464 328.386 71.208C328.471 70.952 328.557 70.7387 328.642 70.568H328.514C328.514 70.4827 328.599 70.2693 328.77 69.928H329.41C329.751 69.0747 330.221 68.2213 330.818 67.368H328.258L329.026 66.088H333.762C333.847 65.9173 334.018 65.704 334.274 65.448H324.93C325.101 65.1067 325.314 64.808 325.57 64.552C325.911 64.2107 326.21 63.8693 326.466 63.528H329.41C329.837 63.1013 330.263 62.6747 330.69 62.248C331.202 61.736 331.671 61.3093 332.098 60.968H337.986C338.754 60.2853 339.65 59.6453 340.674 59.048H343.106C343.447 58.792 343.789 58.5787 344.13 58.408C344.557 58.152 344.941 57.9387 345.282 57.768H337.73C338.498 57.3413 339.437 56.9147 340.546 56.488H344.002C345.965 55.72 348.013 55.08 350.146 54.568H346.306C350.487 53.6293 354.925 53.16 359.618 53.16C364.311 53.16 368.749 53.6293 372.93 54.568H376.898C379.031 55.08 381.037 55.72 382.914 56.488H379.33C380.439 56.9147 381.378 57.3413 382.146 57.768H389.698C390.125 57.9387 390.509 58.152 390.85 58.408C391.277 58.5787 391.661 58.792 392.002 59.048H389.57L392.258 60.968H386.37C386.882 61.3093 387.351 61.736 387.778 62.248C388.29 62.6747 388.759 63.1013 389.186 63.528H386.242C386.498 63.8693 386.754 64.2107 387.01 64.552C387.351 64.808 387.607 65.1067 387.778 65.448H397.25L397.634 66.088H393.026L393.794 67.368H396.354C396.951 68.2213 397.421 69.0747 397.762 69.928H397.122C397.293 70.2693 397.378 70.4827 397.378 70.568H397.634L398.146 71.848H398.018C398.189 72.1893 398.359 72.616 398.53 73.128C398.701 73.5547 398.829 73.9813 398.914 74.408H400.194L400.578 76.328H399.81C399.981 76.6693 400.066 77.096 400.066 77.608C400.151 78.0347 400.237 78.4613 400.322 78.888H401.346C401.431 79.2293 401.474 79.5707 401.474 79.912C401.474 80.168 401.517 80.4667 401.602 80.808H396.61V81.704C396.61 82.1307 396.653 82.472 396.738 82.728H394.178V84.008H410.69ZM361.538 78.888C361.453 79.2293 361.367 79.5707 361.282 79.912C361.282 80.168 361.282 80.4667 361.282 80.808H364.866C364.781 81.064 364.738 81.32 364.738 81.576C364.738 81.832 364.738 82.088 364.738 82.344V82.728H365.25V82.344C365.25 82.088 365.207 81.832 365.122 81.576C365.122 81.32 365.122 81.064 365.122 80.808H370.114C370.114 80.4667 370.071 80.168 369.986 79.912C369.986 79.5707 369.986 79.2293 369.986 78.888H368.962C368.877 78.376 368.749 77.9067 368.578 77.48C368.493 77.0533 368.365 76.6693 368.194 76.328H369.09C368.749 75.56 368.237 74.92 367.554 74.408H366.274C365.421 73.896 364.311 73.64 362.946 73.64C361.581 73.64 360.514 73.896 359.746 74.408H360.642C360.301 74.664 360.002 74.9627 359.746 75.304C359.49 75.56 359.277 75.9013 359.106 76.328H363.33C363.245 76.6693 363.117 77.0533 362.946 77.48C362.861 77.9067 362.775 78.376 362.69 78.888H361.538ZM370.242 86.568H379.33V84.008H362.818C362.733 83.6667 362.69 83.24 362.69 82.728H352.066C352.066 83.24 352.023 83.6667 351.938 84.008H353.602V86.568H361.41V87.848H358.594V89.128H357.058V89.768H353.986C353.986 90.1093 353.986 90.4507 353.986 90.792C354.071 91.048 354.114 91.3467 354.114 91.688H364.226V89.768H369.986V89.128H364.994V87.848H370.242V86.568ZM368.194 92.968V92.328H354.242V92.968H354.882V93.096C354.882 93.1813 354.882 93.2667 354.882 93.352C354.967 93.4373 355.01 93.5227 355.01 93.608H357.186C357.271 94.0347 357.314 94.4613 357.314 94.888C357.314 95.3147 357.357 95.7413 357.442 96.168H356.162C356.333 97.2773 356.503 98.1307 356.674 98.728H358.082C358.253 99.24 358.423 99.6667 358.594 100.008H359.49C360.258 101.203 361.709 101.8 363.842 101.8C365.975 101.8 367.426 101.203 368.194 100.008H368.706C368.791 99.8373 368.877 99.6667 368.962 99.496C369.047 99.24 369.133 98.984 369.218 98.728H367.298C367.383 98.3013 367.469 97.9173 367.554 97.576C367.639 97.1493 367.725 96.68 367.81 96.168H368.706C368.791 95.7413 368.834 95.3147 368.834 94.888C368.834 94.4613 368.877 94.0347 368.962 93.608H367.81V92.968H368.194ZM467.215 64.168H472.079V66.728H471.823V69.288H467.343V71.208H468.495V73.768H467.471V76.328H465.167V76.968H457.103V77.864C457.103 78.0347 457.06 78.2053 456.975 78.376C456.975 78.5467 456.932 78.7173 456.847 78.888H459.791C459.364 80.5093 458.255 81.32 456.463 81.32H439.951C439.61 81.32 439.268 81.32 438.927 81.32C438.671 81.32 438.415 81.3627 438.159 81.448H443.279C442.852 81.5333 442.468 81.6187 442.127 81.704C441.786 81.7893 441.402 81.9173 440.975 82.088H445.199C444.943 82.1733 444.559 82.3867 444.047 82.728H446.479L445.711 83.368H446.351C445.839 83.88 445.455 84.52 445.199 85.288H441.359C441.188 85.6293 441.103 85.8427 441.103 85.928H439.823C439.823 86.0133 439.78 86.0987 439.695 86.184C439.695 86.2693 439.695 86.3973 439.695 86.568H441.231C441.146 86.7387 441.103 86.952 441.103 87.208C441.103 87.3787 441.06 87.592 440.975 87.848H441.743V89.768H439.951V91.048H441.743V92.968H443.663V95.528H440.847V96.168H438.799V96.808H446.479V98.728H442.639V100.008H443.919V101.288H440.975V103.848H439.311V104.488H437.647V106.408H441.999V108.328H439.695V110.248H441.999V110.888H441.743V112.168H438.927V113.448H440.975V116.008H441.487V117.928H440.975C440.804 119.123 440.25 119.976 439.311 120.488H438.159C437.732 120.829 437.135 121 436.367 121H412.047C411.279 121 410.682 120.829 410.255 120.488H411.407C410.468 119.976 409.914 119.123 409.743 117.928H410.255V116.008H409.743V113.448H407.695V112.168H410.511V110.888H410.767V110.248H408.463V108.328H410.767V106.408H406.415V104.488H408.079V103.848H409.743V101.288H412.687V100.008H411.407V98.728H415.247V96.808H407.567V96.168H409.615V95.528H412.431V92.968H410.511V91.048H408.719V89.768H410.511V87.848H409.743V86.568H408.207V85.928H409.487V85.288H413.327V83.368H412.687V82.728H410.383V82.088H406.159V81.448H401.039V78.888H398.223V76.968H406.287V76.328H408.591V73.768H409.615V71.208H408.463V69.288H412.943V66.728H413.199V64.168H408.335V62.248H412.431V59.688H408.463V59.048H409.743V57.896C409.743 57.4693 409.828 57 409.999 56.488H409.871C410.468 55.1227 411.535 54.44 413.071 54.44H435.471C436.922 54.44 437.946 55.1227 438.543 56.488H438.799C438.97 57 439.055 57.4693 439.055 57.896V59.048H437.775V59.688H441.743V60.072L442.255 59.688H442.511C442.682 59.5173 442.852 59.3893 443.023 59.304C443.194 59.2187 443.322 59.1333 443.407 59.048H443.663C445.37 57.9387 447.034 57.0853 448.655 56.488H448.911C450.618 55.8053 452.324 55.2933 454.031 54.952C455.738 54.6107 457.53 54.44 459.407 54.44H465.551C467.087 54.44 468.154 55.1227 468.751 56.488H468.495C468.666 57 468.751 57.4693 468.751 57.896V59.048H468.623V59.688H468.367V62.248H467.215V64.168ZM553.561 59.688H543.193L542.937 60.328H553.689L552.537 62.888H547.545L546.521 65.448H549.209L548.185 68.008H543.961L543.449 69.288H546.649L546.137 70.568H545.369L545.113 71.208H544.985L544.089 73.128H545.369L544.601 75.048H535.513L534.873 76.328H541.913L541.657 76.968H530.137L529.625 78.248H528.601L527.449 80.808H544.345L544.089 81.448H541.145L540.505 82.728H541.401L541.145 83.368H540.377L539.225 85.928L538.457 87.848H536.921L536.025 89.768H537.049L536.153 91.688H536.537L536.281 92.328H536.153L535.641 93.608H536.281L535.769 94.888H535.129L534.617 96.168H534.489L533.721 98.088H534.489L534.233 98.728H533.465L532.569 100.648H527.833L526.681 103.208H529.753L529.241 104.488H532.953L531.929 107.048H527.705L527.193 108.328H529.241L528.217 110.888H527.577L526.425 113.448H527.321L526.809 114.728H526.553L525.913 116.008H525.657L524.761 117.928H525.145L524.249 119.848H523.225L522.329 121.768H520.537L519.897 123.048H529.241L528.217 125.608H518.745L517.593 128.168H522.841L521.689 130.728H526.937L525.785 133.288H526.041L525.017 135.848H508.889L508.249 137.128H511.961L511.449 138.408H517.081L516.441 139.688H503.641L503.001 140.968H509.657L509.145 142.248C508.718 143.357 507.993 144.211 506.969 144.808H501.593C500.91 145.149 500.185 145.32 499.417 145.32H478.425C477.657 145.32 477.102 145.149 476.761 144.808H482.009C481.241 144.211 480.857 143.485 480.857 142.632V142.248C480.857 141.907 480.9 141.608 480.985 141.352L481.113 140.968H474.457L475.097 139.688H487.897L488.409 138.408H482.777L483.289 137.128H479.705L480.217 135.848H496.345L497.497 133.288H497.241L498.265 130.728H493.017L494.041 128.168H488.921L489.945 125.608H499.417L500.441 123.048H491.097L491.609 121.768H493.529L494.297 119.848H495.449L496.217 117.928H495.961L496.473 116.776L496.089 116.008H496.345L495.833 114.728H496.217L495.577 113.448H494.681L493.657 110.888H494.297L493.145 108.328H491.097L490.457 107.048H494.681L493.657 104.488H489.817L489.305 103.208H486.233L485.209 100.648H489.945L489.177 98.728H489.945L489.689 98.088H488.793L488.025 96.168H488.153L487.641 94.888H488.153L487.641 93.608H486.873L486.361 92.328H486.489L486.233 91.688H485.849L485.081 89.768H484.185L483.289 87.848H484.825L484.057 85.928H482.265L481.241 83.368H482.649L482.265 82.728H484.313L483.673 81.448H480.473L480.089 80.808H479.961L478.809 78.248H462.809L462.169 76.968H471.769L471.513 76.328H472.025L471.385 75.048H477.785L476.889 73.128H478.041L477.273 71.208H477.529L477.273 70.568H477.145L476.633 69.288H476.249L475.609 68.008H476.889L475.865 65.448H472.409L471.257 62.888H473.945L472.921 60.328H466.009L465.753 59.688H475.865L475.353 58.408C475.268 58.152 475.225 57.8533 475.225 57.512C475.225 57.3413 475.268 57.2133 475.353 57.128H477.145C477.572 55.336 478.596 54.44 480.217 54.44H501.849C503.044 54.44 503.94 54.7387 504.537 55.336C505.134 55.848 505.561 56.4453 505.817 57.128H504.025C504.025 57.2133 504.025 57.2987 504.025 57.384C504.11 57.384 504.153 57.4267 504.153 57.512L504.537 58.408L504.921 59.688H494.681L494.937 60.328H501.849L502.873 62.888H500.185L501.081 65.448H504.537L505.433 68.008H504.153L504.665 69.288H505.049L505.817 71.208H505.561L506.201 73.128H505.177L505.817 75.048H499.545L499.929 76.328H499.417L499.673 76.968H490.201L490.585 78.248H501.849L502.361 76.968H513.881L514.137 76.328H507.097L507.609 75.048H516.569L517.337 73.128H516.057L516.825 71.208H516.953L517.209 70.568H517.977L518.361 69.288H515.161L515.673 68.008H519.769L520.793 65.448H517.977L519.001 62.888H523.993L524.889 60.328H514.137L514.393 59.688H524.761L525.273 58.408L525.529 57.512C525.614 57.4267 525.657 57.2987 525.657 57.128H521.433C521.86 56.4453 522.372 55.848 522.969 55.336C523.652 54.7387 524.548 54.44 525.657 54.44H547.033C547.801 54.44 548.484 54.7387 549.081 55.336C549.678 55.848 549.977 56.4453 549.977 57.128H554.201C554.201 57.64 554.158 58.0667 554.073 58.408L553.561 59.688ZM516.569 81.448L516.697 80.808H507.865L508.121 81.448H511.321L511.833 82.728H509.913L510.169 83.368H508.761L509.657 85.928H511.449L511.705 86.696L511.961 85.928L512.857 83.368H513.753L514.009 82.728H513.113L513.497 81.448H516.569Z" fill="#FCE551"/>
</svg>
